G04*
G04 #@! TF.GenerationSoftware,Altium Limited,Altium Designer,25.2.1 (25)*
G04*
G04 Layer_Physical_Order=2*
G04 Layer_Color=16711680*
%FSLAX25Y25*%
%MOIN*%
G70*
G04*
G04 #@! TF.SameCoordinates,44C634AB-46FA-46F5-9040-7CAB15AB579A*
G04*
G04*
G04 #@! TF.FilePolarity,Positive*
G04*
G01*
G75*
%ADD14C,0.01000*%
%ADD69C,0.00500*%
%ADD70O,0.07087X0.04724*%
%ADD71O,0.07874X0.04724*%
%ADD72C,0.02953*%
%ADD73R,0.39370X0.39370*%
%ADD74C,0.02362*%
G36*
X73150Y20584D02*
X73223Y20528D01*
X73301Y20479D01*
X73386Y20437D01*
X73477Y20401D01*
X73573Y20371D01*
X73676Y20348D01*
X73784Y20332D01*
X73898Y20322D01*
X74018Y20319D01*
Y19319D01*
X73898Y19316D01*
X73784Y19306D01*
X73676Y19289D01*
X73573Y19267D01*
X73477Y19237D01*
X73386Y19201D01*
X73301Y19159D01*
X73223Y19110D01*
X73150Y19054D01*
X73083Y18992D01*
Y20646D01*
X73150Y20584D01*
D02*
G37*
G36*
X71396Y18992D02*
X71329Y19054D01*
X71256Y19110D01*
X71177Y19159D01*
X71092Y19201D01*
X71002Y19237D01*
X70905Y19267D01*
X70803Y19289D01*
X70695Y19306D01*
X70581Y19316D01*
X70460Y19319D01*
Y20319D01*
X70581Y20322D01*
X70695Y20332D01*
X70803Y20348D01*
X70905Y20371D01*
X71002Y20401D01*
X71092Y20437D01*
X71177Y20479D01*
X71256Y20528D01*
X71329Y20584D01*
X71396Y20646D01*
Y18992D01*
D02*
G37*
G36*
X50111Y16723D02*
X50029Y16636D01*
X49955Y16548D01*
X49890Y16460D01*
X49834Y16372D01*
X49786Y16283D01*
X49748Y16193D01*
X49718Y16103D01*
X49697Y16013D01*
X49685Y15922D01*
X49681Y15831D01*
X48512Y17000D01*
X48603Y17003D01*
X48694Y17016D01*
X48784Y17037D01*
X48874Y17067D01*
X48964Y17105D01*
X49053Y17153D01*
X49141Y17209D01*
X49229Y17274D01*
X49317Y17348D01*
X49404Y17430D01*
X50111Y16723D01*
D02*
G37*
G36*
X120207Y11000D02*
X120010Y10993D01*
X119819Y10972D01*
X119633Y10936D01*
X119454Y10887D01*
X119280Y10823D01*
X119113Y10745D01*
X118951Y10654D01*
X118795Y10548D01*
X118644Y10427D01*
X118500Y10293D01*
X117086D01*
X117210Y10427D01*
X117300Y10548D01*
X117356Y10654D01*
X117378Y10745D01*
X117366Y10823D01*
X117320Y10887D01*
X117239Y10936D01*
X117125Y10972D01*
X116976Y10993D01*
X116793Y11000D01*
X119000Y12000D01*
X120207Y11000D01*
D02*
G37*
G36*
X42111Y10904D02*
X42029Y10817D01*
X41955Y10729D01*
X41890Y10641D01*
X41834Y10553D01*
X41786Y10464D01*
X41748Y10374D01*
X41718Y10284D01*
X41697Y10194D01*
X41684Y10103D01*
X41681Y10012D01*
X40512Y11181D01*
X40603Y11185D01*
X40694Y11197D01*
X40784Y11218D01*
X40874Y11248D01*
X40964Y11286D01*
X41053Y11334D01*
X41141Y11390D01*
X41229Y11455D01*
X41317Y11529D01*
X41404Y11611D01*
X42111Y10904D01*
D02*
G37*
G36*
X75750Y5243D02*
X75663Y5226D01*
X75577Y5201D01*
X75490Y5169D01*
X75403Y5129D01*
X75316Y5083D01*
X75229Y5029D01*
X75143Y4968D01*
X75056Y4899D01*
X74883Y4741D01*
X74041Y5313D01*
X74124Y5401D01*
X74196Y5489D01*
X74258Y5577D01*
X74310Y5666D01*
X74351Y5754D01*
X74381Y5843D01*
X74402Y5931D01*
X74412Y6020D01*
X74411Y6109D01*
X74400Y6198D01*
X75750Y5243D01*
D02*
G37*
G36*
X169094Y644D02*
X169104Y530D01*
X169120Y422D01*
X169143Y319D01*
X169173Y223D01*
X169208Y132D01*
X169251Y48D01*
X169300Y-31D01*
X169355Y-104D01*
X169418Y-171D01*
X167764D01*
X167826Y-104D01*
X167882Y-31D01*
X167931Y48D01*
X167973Y132D01*
X168009Y223D01*
X168038Y319D01*
X168061Y422D01*
X168078Y530D01*
X168087Y644D01*
X168091Y764D01*
X169091D01*
X169094Y644D01*
D02*
G37*
G36*
X58911Y-235D02*
X58983Y-291D01*
X59062Y-340D01*
X59147Y-382D01*
X59237Y-418D01*
X59334Y-448D01*
X59436Y-471D01*
X59544Y-487D01*
X59659Y-497D01*
X59779Y-500D01*
Y-1500D01*
X59659Y-1503D01*
X59544Y-1513D01*
X59436Y-1529D01*
X59334Y-1552D01*
X59237Y-1582D01*
X59147Y-1618D01*
X59062Y-1660D01*
X58983Y-1709D01*
X58911Y-1765D01*
X58843Y-1827D01*
Y-173D01*
X58911Y-235D01*
D02*
G37*
G36*
X21000Y-1500D02*
X48000D01*
Y-13500D01*
X21000D01*
Y-36500D01*
X20069D01*
X19971Y-36480D01*
X4020D01*
Y1400D01*
X4000Y1498D01*
Y1599D01*
X3983Y1682D01*
X3945Y1775D01*
X3942Y1790D01*
X3934Y1802D01*
X3831Y2050D01*
X3550Y2331D01*
X3302Y2434D01*
X3290Y2442D01*
X3275Y2445D01*
X3182Y2483D01*
X3098Y2500D01*
X2998D01*
X2900Y2520D01*
X-6000D01*
Y20500D01*
X21000D01*
Y-1500D01*
D02*
G37*
G36*
X172003Y-38841D02*
X172013Y-38956D01*
X172029Y-39064D01*
X172052Y-39166D01*
X172082Y-39263D01*
X172118Y-39353D01*
X172160Y-39438D01*
X172209Y-39517D01*
X172265Y-39590D01*
X172327Y-39656D01*
X170673D01*
X170735Y-39590D01*
X170791Y-39517D01*
X170840Y-39438D01*
X170882Y-39353D01*
X170918Y-39263D01*
X170948Y-39166D01*
X170971Y-39064D01*
X170987Y-38956D01*
X170997Y-38841D01*
X171000Y-38721D01*
X172000D01*
X172003Y-38841D01*
D02*
G37*
G36*
X38418Y-68244D02*
X38490Y-68300D01*
X38569Y-68350D01*
X38653Y-68393D01*
X38743Y-68429D01*
X38840Y-68459D01*
X38942Y-68482D01*
X39050Y-68498D01*
X39164Y-68508D01*
X39284Y-68512D01*
X39273Y-69512D01*
X39153Y-69515D01*
X39039Y-69525D01*
X38931Y-69541D01*
X38828Y-69563D01*
X38731Y-69592D01*
X38640Y-69628D01*
X38555Y-69670D01*
X38476Y-69719D01*
X38403Y-69774D01*
X38335Y-69835D01*
X38352Y-68182D01*
X38418Y-68244D01*
D02*
G37*
G36*
X2983Y1483D02*
X3000Y1400D01*
Y-36480D01*
Y-37500D01*
X19971D01*
X20069Y-37520D01*
X21000D01*
Y-62930D01*
X22980Y-62932D01*
Y-63500D01*
X23058Y-63890D01*
X23279Y-64221D01*
X23610Y-64442D01*
X24000Y-64520D01*
X68000D01*
X68390Y-64442D01*
X68637Y-64277D01*
X68956Y-64665D01*
X66139Y-67482D01*
X39150D01*
X39131Y-67479D01*
X39103Y-67473D01*
X39084Y-67467D01*
X39077Y-67465D01*
X39052Y-67440D01*
X38980Y-67395D01*
X38735Y-67151D01*
X37934Y-66819D01*
X37066D01*
X36265Y-67151D01*
X35651Y-67765D01*
X35319Y-68566D01*
Y-69434D01*
X35651Y-70236D01*
X36265Y-70849D01*
X37066Y-71181D01*
X37934D01*
X38735Y-70849D01*
X38956Y-70629D01*
X39021Y-70589D01*
X39050Y-70563D01*
X39053Y-70561D01*
X39065Y-70557D01*
X39085Y-70551D01*
X39116Y-70544D01*
X39136Y-70541D01*
X66773D01*
X67358Y-70425D01*
X67854Y-70093D01*
X74969Y-62978D01*
X99402Y-63000D01*
X99500Y-63020D01*
X121333D01*
X142038Y-63038D01*
Y-63038D01*
X142056Y-63020D01*
X143000D01*
X143390Y-62942D01*
X143721Y-62721D01*
X143942Y-62390D01*
X144020Y-62000D01*
Y-34500D01*
X152480D01*
Y-51951D01*
X152471Y-52000D01*
Y-69867D01*
X147837Y-74500D01*
X8000D01*
X8000Y-59000D01*
Y-49701D01*
X3625D01*
X2993Y-49440D01*
X2115Y-49324D01*
X-1034D01*
X-1912Y-49440D01*
X-2543Y-49701D01*
X-6000D01*
Y1500D01*
X2900D01*
X2983Y1483D01*
D02*
G37*
G36*
X166500Y8654D02*
Y-363D01*
X166410Y-581D01*
Y-1448D01*
X166500Y-1667D01*
Y-22000D01*
Y-55000D01*
Y-88439D01*
X25854Y-88526D01*
X25500Y-88173D01*
Y-75520D01*
X147837D01*
X148227Y-75442D01*
X148558Y-75221D01*
X152279Y-71500D01*
X153500D01*
Y-55000D01*
Y-22000D01*
X144020D01*
Y-19500D01*
X143942Y-19110D01*
X143721Y-18779D01*
X143390Y-18558D01*
X143000Y-18480D01*
X102000D01*
Y-7663D01*
X119345Y9682D01*
X119401Y9727D01*
X119490Y9787D01*
X119579Y9838D01*
X119671Y9880D01*
X119765Y9915D01*
X119865Y9943D01*
X119971Y9963D01*
X120042Y9971D01*
X165183D01*
X166500Y8654D01*
D02*
G37*
%LPC*%
G36*
X160934Y-56319D02*
X160066D01*
X159265Y-56651D01*
X158651Y-57265D01*
X158319Y-58066D01*
Y-58394D01*
X158300Y-58473D01*
X158299Y-58511D01*
X158299Y-58511D01*
X158294Y-58521D01*
X158285Y-58539D01*
X158268Y-58565D01*
X158257Y-58580D01*
X156919Y-59919D01*
X156587Y-60415D01*
X156471Y-61000D01*
Y-74366D01*
X155580Y-75257D01*
X155565Y-75268D01*
X155539Y-75285D01*
X155521Y-75294D01*
X155511Y-75299D01*
X155511Y-75299D01*
X155473Y-75300D01*
X155394Y-75319D01*
X155066D01*
X154264Y-75651D01*
X153651Y-76265D01*
X153319Y-77066D01*
Y-77934D01*
X153651Y-78736D01*
X154264Y-79349D01*
X155066Y-79681D01*
X155934D01*
X156736Y-79349D01*
X157349Y-78736D01*
X157681Y-77934D01*
Y-77606D01*
X157700Y-77527D01*
X157701Y-77489D01*
X157701Y-77489D01*
X157706Y-77479D01*
X157715Y-77461D01*
X157732Y-77435D01*
X157743Y-77420D01*
X159081Y-76081D01*
X159413Y-75585D01*
X159529Y-75000D01*
Y-61633D01*
X160420Y-60743D01*
X160435Y-60732D01*
X160461Y-60715D01*
X160479Y-60706D01*
X160489Y-60701D01*
X160489Y-60701D01*
X160527Y-60700D01*
X160606Y-60681D01*
X160934D01*
X161735Y-60349D01*
X162349Y-59736D01*
X162681Y-58934D01*
Y-58066D01*
X162349Y-57265D01*
X161735Y-56651D01*
X160934Y-56319D01*
D02*
G37*
G36*
X88707Y-82524D02*
X88029D01*
X87374Y-82700D01*
X86787Y-83039D01*
X86308Y-83518D01*
X85969Y-84105D01*
X85793Y-84760D01*
Y-85438D01*
X85969Y-86093D01*
X86308Y-86680D01*
X86787Y-87159D01*
X87374Y-87498D01*
X88029Y-87674D01*
X88707D01*
X89362Y-87498D01*
X89949Y-87159D01*
X90428Y-86680D01*
X90767Y-86093D01*
X90943Y-85438D01*
Y-84760D01*
X90767Y-84105D01*
X90428Y-83518D01*
X89949Y-83039D01*
X89362Y-82700D01*
X88707Y-82524D01*
D02*
G37*
G36*
X79652D02*
X78974D01*
X78319Y-82700D01*
X77732Y-83039D01*
X77253Y-83518D01*
X76914Y-84105D01*
X76738Y-84760D01*
Y-85438D01*
X76914Y-86093D01*
X77253Y-86680D01*
X77732Y-87159D01*
X78319Y-87498D01*
X78974Y-87674D01*
X79652D01*
X80307Y-87498D01*
X80894Y-87159D01*
X81373Y-86680D01*
X81712Y-86093D01*
X81888Y-85438D01*
Y-84760D01*
X81712Y-84105D01*
X81373Y-83518D01*
X80894Y-83039D01*
X80307Y-82700D01*
X79652Y-82524D01*
D02*
G37*
%LPD*%
G36*
X160488Y-59681D02*
X160397Y-59684D01*
X160306Y-59697D01*
X160216Y-59718D01*
X160126Y-59748D01*
X160036Y-59786D01*
X159947Y-59834D01*
X159859Y-59890D01*
X159771Y-59955D01*
X159683Y-60029D01*
X159596Y-60111D01*
X158889Y-59404D01*
X158971Y-59317D01*
X159045Y-59229D01*
X159110Y-59141D01*
X159166Y-59053D01*
X159214Y-58964D01*
X159252Y-58874D01*
X159282Y-58784D01*
X159303Y-58694D01*
X159316Y-58603D01*
X159319Y-58512D01*
X160488Y-59681D01*
D02*
G37*
G36*
X157111Y-76596D02*
X157029Y-76683D01*
X156955Y-76771D01*
X156890Y-76859D01*
X156834Y-76947D01*
X156786Y-77036D01*
X156748Y-77126D01*
X156718Y-77216D01*
X156697Y-77306D01*
X156685Y-77397D01*
X156681Y-77488D01*
X155512Y-76319D01*
X155603Y-76315D01*
X155694Y-76303D01*
X155784Y-76282D01*
X155874Y-76252D01*
X155964Y-76214D01*
X156053Y-76166D01*
X156141Y-76110D01*
X156229Y-76045D01*
X156317Y-75971D01*
X156404Y-75889D01*
X157111Y-76596D01*
D02*
G37*
D14*
X75562Y6127D02*
Y6409D01*
X68435Y-1000D02*
X75562Y6127D01*
X58000Y-1000D02*
X68435D01*
X68294Y-70319D02*
X136123D01*
X37500Y-69000D02*
X37512Y-69012D01*
X66773D01*
X75000Y-32500D02*
X119000Y11500D01*
X66773Y-69012D02*
X75000Y-60784D01*
Y-32500D01*
X67601Y-71012D02*
X68294Y-70319D01*
X37514Y-73500D02*
X40002Y-71012D01*
X65438D01*
X67601D01*
X40500Y10000D02*
X42000Y11500D01*
X119000D01*
X165817D02*
X168591Y8726D01*
X119000Y11500D02*
X165817D01*
X55375Y-88134D02*
X80586D01*
X162810Y6310D02*
X165000Y8500D01*
X53332Y-86091D02*
X55375Y-88134D01*
X27751Y-86091D02*
X53332D01*
X80586Y-88134D02*
X91720Y-77000D01*
X48500Y15819D02*
X52500Y19819D01*
X29685Y-73500D02*
X37514D01*
X16842Y-60658D02*
X29685Y-73500D01*
X27751Y-86091D02*
X36842Y-77000D01*
X91720D01*
X144500Y-61942D02*
X145974Y-60468D01*
X142942Y-63500D02*
X143621D01*
X145974Y-60468D02*
Y-44526D01*
X136123Y-70319D02*
X142942Y-63500D01*
X143621D02*
X144500Y-62621D01*
Y-61942D01*
X72286Y19819D02*
X160376D01*
X171500Y-40500D02*
Y8694D01*
X160376Y19819D02*
X171500Y8694D01*
X168591Y-1015D02*
Y8726D01*
X159880Y4380D02*
X161810Y6310D01*
X159880Y-16500D02*
Y4380D01*
Y-19880D02*
Y-16500D01*
X161810Y6310D02*
X162810D01*
X52500Y19819D02*
X72239D01*
X91720Y-77000D02*
X113500D01*
X147500D01*
X154000Y-70500D01*
Y-52000D01*
X156500Y-49500D01*
X159880Y-46120D01*
X158000Y-61000D02*
X160500Y-58500D01*
X155500Y-77500D02*
X158000Y-75000D01*
Y-61000D01*
X5500Y-35000D02*
Y2500D01*
X137000Y3000D02*
Y5000D01*
Y-6626D02*
Y3000D01*
X159880Y-19880D01*
X147000Y-43500D02*
Y-40000D01*
Y-43500D02*
X150500Y-40000D01*
X145974Y-44526D02*
X147000Y-43500D01*
Y-40000D02*
X150500Y-36500D01*
X0Y-37500D02*
X11330Y-48830D01*
X17330D01*
X0Y-37500D02*
Y-7500D01*
X137000Y-6626D02*
X137000Y-6626D01*
X105791Y-6626D02*
X137000D01*
X159880Y-46120D02*
Y-19880D01*
D69*
X88368Y-85099D02*
D03*
X79313D02*
D03*
X172500Y-83500D02*
D03*
Y18000D02*
D03*
X-15000Y-42500D02*
D03*
X84500Y-41500D02*
D03*
X-15000Y18000D02*
D03*
D70*
X-15916Y-52715D02*
D03*
Y-86731D02*
D03*
D71*
X541Y-52715D02*
D03*
Y-86731D02*
D03*
D72*
X-1546Y-81101D02*
D03*
Y-58345D02*
D03*
D73*
X121402Y-41500D02*
D03*
X46598D02*
D03*
D74*
X14263Y270D02*
D03*
X75562Y6409D02*
D03*
X45000Y-11000D02*
D03*
X37500Y-69000D02*
D03*
X165000Y8500D02*
D03*
X48500Y15819D02*
D03*
X16842Y-60658D02*
D03*
X41000Y-11000D02*
D03*
X31335Y-57220D02*
D03*
X33303Y-53283D02*
D03*
X31335Y-49346D02*
D03*
X33303Y-45409D02*
D03*
X31335Y-41472D02*
D03*
X33303Y-37535D02*
D03*
X31335Y-33598D02*
D03*
X33303Y-29661D02*
D03*
X31335Y-25724D02*
D03*
X35272Y-57220D02*
D03*
X37240Y-53283D02*
D03*
X35272Y-49346D02*
D03*
Y-33598D02*
D03*
X37240Y-29661D02*
D03*
X35272Y-25724D02*
D03*
X39209Y-57220D02*
D03*
Y-25724D02*
D03*
X43146Y-57220D02*
D03*
Y-25724D02*
D03*
X47083Y-57220D02*
D03*
Y-25724D02*
D03*
X51020Y-57220D02*
D03*
Y-25724D02*
D03*
X54957Y-57220D02*
D03*
X56925Y-53283D02*
D03*
Y-29661D02*
D03*
X54957Y-25724D02*
D03*
X58894Y-57220D02*
D03*
X60862Y-53283D02*
D03*
X58894Y-49346D02*
D03*
X60862Y-45409D02*
D03*
Y-37535D02*
D03*
X58894Y-33598D02*
D03*
X60862Y-29661D02*
D03*
X58894Y-25724D02*
D03*
X62831Y-57220D02*
D03*
X64799Y-53283D02*
D03*
X62831Y-49346D02*
D03*
X64799Y-45409D02*
D03*
X62831Y-41472D02*
D03*
X64799Y-37535D02*
D03*
X62831Y-33598D02*
D03*
X64799Y-29661D02*
D03*
X62831Y-25724D02*
D03*
X104169Y-53283D02*
D03*
Y-45409D02*
D03*
Y-37535D02*
D03*
Y-29661D02*
D03*
X106138Y-57220D02*
D03*
X108107Y-53283D02*
D03*
X106138Y-49346D02*
D03*
X108107Y-45409D02*
D03*
X106138Y-41472D02*
D03*
X108107Y-37535D02*
D03*
X106138Y-33598D02*
D03*
X108107Y-29661D02*
D03*
X106138Y-25724D02*
D03*
X110075Y-57220D02*
D03*
X112043Y-53283D02*
D03*
X110075Y-49346D02*
D03*
Y-33598D02*
D03*
X112043Y-29661D02*
D03*
X110075Y-25724D02*
D03*
X114012Y-57220D02*
D03*
Y-25724D02*
D03*
X117949Y-57220D02*
D03*
Y-25724D02*
D03*
X121886Y-57220D02*
D03*
Y-25724D02*
D03*
X125823Y-57220D02*
D03*
Y-25724D02*
D03*
X129760Y-57220D02*
D03*
X131729Y-53283D02*
D03*
Y-29661D02*
D03*
X129760Y-25724D02*
D03*
X133697Y-57220D02*
D03*
X135666Y-53283D02*
D03*
X133697Y-49346D02*
D03*
X135666Y-45409D02*
D03*
Y-37535D02*
D03*
X133697Y-33598D02*
D03*
X135666Y-29661D02*
D03*
X133697Y-25724D02*
D03*
X137634Y-57220D02*
D03*
X139603Y-53283D02*
D03*
X137634Y-49346D02*
D03*
X139603Y-45409D02*
D03*
X137634Y-41472D02*
D03*
X139603Y-37535D02*
D03*
X137634Y-33598D02*
D03*
X139603Y-29661D02*
D03*
X137634Y-25724D02*
D03*
X58000Y-1000D02*
D03*
X103500Y-82500D02*
D03*
X72239Y19819D02*
D03*
X171500Y-40500D02*
D03*
X113500Y-77000D02*
D03*
X40500Y10000D02*
D03*
X155500Y-77500D02*
D03*
X0Y0D02*
D03*
X5500Y-2000D02*
D03*
Y2500D02*
D03*
X160000Y-16500D02*
D03*
X160500Y-58500D02*
D03*
X150500Y-40000D02*
D03*
Y-36500D02*
D03*
X10000Y-35000D02*
D03*
X5500D02*
D03*
X27751Y-86091D02*
D03*
X105791Y-6626D02*
D03*
X168591Y-1015D02*
D03*
X137000Y5000D02*
D03*
X0Y-7500D02*
D03*
X17330Y-48830D02*
D03*
X156500Y-49500D02*
D03*
X159880Y-19880D02*
D03*
M02*
