G04*
G04 #@! TF.GenerationSoftware,Altium Limited,Altium Designer,25.2.1 (25)*
G04*
G04 Layer_Color=8388736*
%FSLAX25Y25*%
%MOIN*%
G70*
G04*
G04 #@! TF.SameCoordinates,44C634AB-46FA-46F5-9040-7CAB15AB579A*
G04*
G04*
G04 #@! TF.FilePolarity,Negative*
G04*
G01*
G75*
%ADD37R,0.07887X0.04737*%
%ADD38R,0.05524X0.15367*%
%ADD39R,0.04737X0.04343*%
%ADD40R,0.07887X0.05918*%
%ADD41R,0.05918X0.07887*%
%ADD42R,0.04147X0.04540*%
%ADD43R,0.04737X0.03162*%
%ADD44R,0.03162X0.02769*%
%ADD45R,0.02769X0.02769*%
%ADD46R,0.05524X0.05524*%
%ADD47R,0.05512X0.01575*%
%ADD48R,0.04343X0.04737*%
%ADD49R,0.04540X0.04147*%
%ADD50R,0.02375X0.04147*%
%ADD51R,0.06115X0.04934*%
%ADD52R,0.03162X0.04737*%
%ADD53R,0.04540X0.03162*%
%ADD54R,0.03162X0.04934*%
%ADD55R,0.06469X0.05564*%
%ADD56R,0.05564X0.06469*%
%ADD57R,0.07493X0.04934*%
%ADD58C,0.01300*%
%ADD59O,0.07480X0.05118*%
%ADD60O,0.08268X0.05118*%
%ADD61C,0.03347*%
%ADD62R,0.40170X0.40170*%
G36*
X70507Y-83914D02*
X70558Y-83924D01*
X70608Y-83941D01*
X70655Y-83964D01*
X70699Y-83994D01*
X70738Y-84028D01*
X70773Y-84068D01*
X70802Y-84111D01*
X70825Y-84158D01*
X70842Y-84208D01*
X70852Y-84259D01*
X70855Y-84312D01*
Y-86667D01*
X73211D01*
X73263Y-86670D01*
X73314Y-86680D01*
X73364Y-86697D01*
X73411Y-86720D01*
X73455Y-86750D01*
X73494Y-86784D01*
X73529Y-86823D01*
X73558Y-86867D01*
X73581Y-86914D01*
X73598Y-86964D01*
X73608Y-87015D01*
X73611Y-87068D01*
Y-90217D01*
X73608Y-90269D01*
X73598Y-90321D01*
X73581Y-90371D01*
X73558Y-90417D01*
X73529Y-90461D01*
X73494Y-90501D01*
X73455Y-90535D01*
X73411Y-90564D01*
X73364Y-90588D01*
X73314Y-90604D01*
X73263Y-90614D01*
X73211Y-90618D01*
X67305D01*
X67253Y-90614D01*
X67201Y-90604D01*
X67152Y-90588D01*
X67105Y-90564D01*
X67061Y-90535D01*
X67022Y-90501D01*
X66987Y-90461D01*
X66958Y-90417D01*
X66935Y-90371D01*
X66918Y-90321D01*
X66908Y-90269D01*
X66904Y-90217D01*
Y-84312D01*
X66908Y-84259D01*
X66918Y-84208D01*
X66935Y-84158D01*
X66958Y-84111D01*
X66987Y-84068D01*
X67022Y-84028D01*
X67061Y-83994D01*
X67105Y-83964D01*
X67152Y-83941D01*
X67201Y-83924D01*
X67253Y-83914D01*
X67305Y-83911D01*
X70455D01*
X70507Y-83914D01*
D02*
G37*
G36*
X100428D02*
X100480Y-83924D01*
X100529Y-83941D01*
X100576Y-83964D01*
X100620Y-83994D01*
X100659Y-84028D01*
X100694Y-84068D01*
X100723Y-84111D01*
X100746Y-84158D01*
X100763Y-84208D01*
X100773Y-84259D01*
X100777Y-84312D01*
Y-90217D01*
X100773Y-90269D01*
X100763Y-90321D01*
X100746Y-90371D01*
X100723Y-90417D01*
X100694Y-90461D01*
X100659Y-90501D01*
X100620Y-90535D01*
X100576Y-90564D01*
X100529Y-90588D01*
X100480Y-90604D01*
X100428Y-90614D01*
X100376Y-90618D01*
X94470D01*
X94418Y-90614D01*
X94367Y-90604D01*
X94317Y-90588D01*
X94270Y-90564D01*
X94226Y-90535D01*
X94187Y-90501D01*
X94152Y-90461D01*
X94123Y-90417D01*
X94100Y-90371D01*
X94083Y-90321D01*
X94073Y-90269D01*
X94069Y-90217D01*
Y-87068D01*
X94073Y-87015D01*
X94083Y-86964D01*
X94100Y-86914D01*
X94123Y-86867D01*
X94152Y-86823D01*
X94187Y-86784D01*
X94226Y-86750D01*
X94270Y-86720D01*
X94317Y-86697D01*
X94367Y-86680D01*
X94418Y-86670D01*
X94470Y-86667D01*
X96825D01*
Y-84312D01*
X96829Y-84259D01*
X96839Y-84208D01*
X96856Y-84158D01*
X96879Y-84111D01*
X96908Y-84068D01*
X96943Y-84028D01*
X96982Y-83994D01*
X97026Y-83964D01*
X97073Y-83941D01*
X97123Y-83924D01*
X97174Y-83914D01*
X97226Y-83911D01*
X100376D01*
X100428Y-83914D01*
D02*
G37*
D37*
X85500Y-27500D02*
D03*
Y-16476D02*
D03*
D38*
X-80Y-24176D02*
D03*
X10944D02*
D03*
D39*
X169438Y9157D02*
D03*
Y3842D02*
D03*
X149297Y-766D02*
D03*
Y4549D02*
D03*
X117288Y-6795D02*
D03*
Y-1480D02*
D03*
X156401Y-19129D02*
D03*
Y-24444D02*
D03*
Y-36271D02*
D03*
Y-30956D02*
D03*
X168229Y-4843D02*
D03*
Y-10158D02*
D03*
X110053Y-1480D02*
D03*
Y-6795D02*
D03*
X11556Y-48830D02*
D03*
Y-43515D02*
D03*
Y-60658D02*
D03*
Y-55343D02*
D03*
X49034Y-83157D02*
D03*
Y-77842D02*
D03*
X24198Y-81187D02*
D03*
Y-86502D02*
D03*
D40*
X45929Y4518D02*
D03*
Y-6899D02*
D03*
D41*
X29514Y4147D02*
D03*
X18096D02*
D03*
D42*
X124149Y-86207D02*
D03*
X133405Y-77072D02*
D03*
X131787Y16940D02*
D03*
X136905D02*
D03*
X112384Y5328D02*
D03*
X117502D02*
D03*
X156204Y-9822D02*
D03*
X161322D02*
D03*
X74325Y2358D02*
D03*
X69207D02*
D03*
X128287Y-77072D02*
D03*
X119031Y-86207D02*
D03*
X104631Y-77072D02*
D03*
X109749D02*
D03*
X55941Y-76500D02*
D03*
X61059D02*
D03*
X55941Y-83603D02*
D03*
X61059D02*
D03*
X22864Y11346D02*
D03*
X17746D02*
D03*
X11036D02*
D03*
X5918D02*
D03*
D43*
X140685Y-84749D02*
D03*
Y-77269D02*
D03*
X68404Y17139D02*
D03*
Y13399D02*
D03*
Y9658D02*
D03*
X79033D02*
D03*
Y13399D02*
D03*
Y17139D02*
D03*
X111Y-3631D02*
D03*
Y3849D02*
D03*
X10938D02*
D03*
Y109D02*
D03*
Y-3631D02*
D03*
X140685Y-81009D02*
D03*
X151315Y-77269D02*
D03*
Y-81009D02*
D03*
Y-84749D02*
D03*
X41931Y-86148D02*
D03*
Y-82408D02*
D03*
Y-78668D02*
D03*
X31301D02*
D03*
Y-86148D02*
D03*
D44*
X103358Y-85257D02*
D03*
X113594D02*
D03*
D45*
X106823D02*
D03*
X110130D02*
D03*
D46*
X92108Y-79981D02*
D03*
X75573D02*
D03*
D47*
X4748Y-82912D02*
D03*
X4748Y-81731D02*
D03*
X4748Y-79763D02*
D03*
X4747Y-78542D02*
D03*
X4748Y-60904D02*
D03*
X4747Y-59644D02*
D03*
X4747Y-57715D02*
D03*
Y-56337D02*
D03*
X4747Y-76613D02*
D03*
Y-74643D02*
D03*
Y-72676D02*
D03*
X4747Y-70707D02*
D03*
X4747Y-68739D02*
D03*
X4747Y-66770D02*
D03*
X4747Y-64802D02*
D03*
Y-62833D02*
D03*
D48*
X131688Y9837D02*
D03*
X137003D02*
D03*
X156105Y-2663D02*
D03*
X161421D02*
D03*
X5822Y-12014D02*
D03*
X508D02*
D03*
X17648Y18484D02*
D03*
X22963D02*
D03*
D49*
X124880Y9560D02*
D03*
Y14678D02*
D03*
X149356Y16278D02*
D03*
Y11160D02*
D03*
X142183Y-3749D02*
D03*
Y1369D02*
D03*
X86137Y13791D02*
D03*
Y18909D02*
D03*
X11556Y-72387D02*
D03*
Y-67269D02*
D03*
Y-84215D02*
D03*
Y-79097D02*
D03*
X171272Y-44966D02*
D03*
Y-50084D02*
D03*
X156401Y-53220D02*
D03*
Y-58338D02*
D03*
X156401Y-65048D02*
D03*
Y-70166D02*
D03*
D50*
X157414Y13003D02*
D03*
X159973D02*
D03*
X162532D02*
D03*
Y4145D02*
D03*
X159973D02*
D03*
X157414D02*
D03*
D51*
X85905Y-4630D02*
D03*
Y2260D02*
D03*
D52*
X101670Y-6598D02*
D03*
X94190D02*
D03*
Y4228D02*
D03*
X97930D02*
D03*
X101670D02*
D03*
X171189Y-67667D02*
D03*
X167449D02*
D03*
X163709D02*
D03*
Y-57037D02*
D03*
X167449D02*
D03*
X171189D02*
D03*
X167441Y-30101D02*
D03*
X163701Y-19471D02*
D03*
X171181D02*
D03*
D53*
X135137Y1374D02*
D03*
Y-6106D02*
D03*
X124310D02*
D03*
Y-2366D02*
D03*
Y1374D02*
D03*
X35874Y17205D02*
D03*
Y10020D02*
D03*
X45126Y13612D02*
D03*
D54*
X58166Y4130D02*
D03*
X61906Y-6500D02*
D03*
X54426D02*
D03*
D55*
X37645Y-4810D02*
D03*
Y2080D02*
D03*
D56*
X-2929Y-45120D02*
D03*
X3960D02*
D03*
D57*
X28081Y-4728D02*
D03*
X19419D02*
D03*
D58*
X88368Y-85099D02*
D03*
X79313D02*
D03*
X172500Y-83500D02*
D03*
Y18000D02*
D03*
X-15000Y-42500D02*
D03*
X84500Y-41500D02*
D03*
X-15000Y18000D02*
D03*
D59*
X-15916Y-52715D02*
D03*
Y-86731D02*
D03*
D60*
X541Y-52715D02*
D03*
Y-86731D02*
D03*
D61*
X-1546Y-81101D02*
D03*
Y-58345D02*
D03*
D62*
X121402Y-41500D02*
D03*
X46598D02*
D03*
M02*
