G04*
G04 #@! TF.GenerationSoftware,Altium Limited,Altium Designer,25.2.1 (25)*
G04*
G04 Layer_Color=128*
%FSLAX25Y25*%
%MOIN*%
G70*
G04*
G04 #@! TF.SameCoordinates,44C634AB-46FA-46F5-9040-7CAB15AB579A*
G04*
G04*
G04 #@! TF.FilePolarity,Positive*
G04*
G01*
G75*
%ADD81C,0.00500*%
D81*
X86793Y-85099D02*
X89943D01*
X88368Y-86674D02*
Y-83524D01*
X77738Y-85099D02*
X80888D01*
X79313Y-86674D02*
Y-83524D01*
X-17491Y-52715D02*
X-14341D01*
X-15916Y-54290D02*
Y-51141D01*
X-1034Y-52715D02*
X2115D01*
X541Y-54290D02*
Y-51141D01*
X-1034Y-86731D02*
X2115D01*
X541Y-88306D02*
Y-85156D01*
X-17491Y-86731D02*
X-14341D01*
X-15916Y-88306D02*
Y-85156D01*
X-3022Y-81101D02*
X-70D01*
X-1546Y-82578D02*
Y-79625D01*
X-3022Y-58345D02*
X-70D01*
X-1546Y-59822D02*
Y-56869D01*
X110856Y-41500D02*
X131947D01*
X121402Y-52045D02*
Y-30955D01*
X36053Y-41500D02*
X57144D01*
X46598Y-52045D02*
Y-30955D01*
X167776Y-83500D02*
X177224D01*
X172500Y-88224D02*
Y-78776D01*
X167776Y18000D02*
X177224D01*
X172500Y13276D02*
Y22724D01*
X-19724Y-42500D02*
X-10276D01*
X-15000Y-47224D02*
Y-37776D01*
X79776Y-41500D02*
X89224D01*
X84500Y-46224D02*
Y-36776D01*
X-19724Y18000D02*
X-10276D01*
X-15000Y13276D02*
Y22724D01*
X13672Y270D02*
X14853D01*
X14263Y-321D02*
Y860D01*
X74971Y6409D02*
X76153D01*
X75562Y5819D02*
Y7000D01*
X44409Y-11000D02*
X45591D01*
X45000Y-11591D02*
Y-10409D01*
X36909Y-69000D02*
X38091D01*
X37500Y-69591D02*
Y-68410D01*
X164409Y8500D02*
X165591D01*
X165000Y7909D02*
Y9091D01*
X47909Y15819D02*
X49091D01*
X48500Y15228D02*
Y16409D01*
X16252Y-60658D02*
X17433D01*
X16842Y-61248D02*
Y-60067D01*
X40409Y-11000D02*
X41591D01*
X41000Y-11591D02*
Y-10409D01*
X30744Y-57220D02*
X31925D01*
X31335Y-57811D02*
Y-56630D01*
X32713Y-53283D02*
X33894D01*
X33303Y-53874D02*
Y-52693D01*
X30744Y-49346D02*
X31925D01*
X31335Y-49937D02*
Y-48756D01*
X32713Y-45409D02*
X33894D01*
X33303Y-46000D02*
Y-44819D01*
X30744Y-41472D02*
X31925D01*
X31335Y-42063D02*
Y-40882D01*
X32713Y-37535D02*
X33894D01*
X33303Y-38126D02*
Y-36945D01*
X30744Y-33598D02*
X31925D01*
X31335Y-34189D02*
Y-33008D01*
X32713Y-29661D02*
X33894D01*
X33303Y-30252D02*
Y-29071D01*
X30744Y-25724D02*
X31925D01*
X31335Y-26315D02*
Y-25134D01*
X34681Y-57220D02*
X35862D01*
X35272Y-57811D02*
Y-56630D01*
X36650Y-53283D02*
X37831D01*
X37240Y-53874D02*
Y-52693D01*
X34681Y-49346D02*
X35862D01*
X35272Y-49937D02*
Y-48756D01*
X34681Y-33598D02*
X35862D01*
X35272Y-34189D02*
Y-33008D01*
X36650Y-29661D02*
X37831D01*
X37240Y-30252D02*
Y-29071D01*
X34681Y-25724D02*
X35862D01*
X35272Y-26315D02*
Y-25134D01*
X38618Y-57220D02*
X39799D01*
X39209Y-57811D02*
Y-56630D01*
X38618Y-25724D02*
X39799D01*
X39209Y-26315D02*
Y-25134D01*
X42555Y-57220D02*
X43736D01*
X43146Y-57811D02*
Y-56630D01*
X42555Y-25724D02*
X43736D01*
X43146Y-26315D02*
Y-25134D01*
X46492Y-57220D02*
X47673D01*
X47083Y-57811D02*
Y-56630D01*
X46492Y-25724D02*
X47673D01*
X47083Y-26315D02*
Y-25134D01*
X50429Y-57220D02*
X51610D01*
X51020Y-57811D02*
Y-56630D01*
X50429Y-25724D02*
X51610D01*
X51020Y-26315D02*
Y-25134D01*
X54366Y-57220D02*
X55547D01*
X54957Y-57811D02*
Y-56630D01*
X56335Y-53283D02*
X57516D01*
X56925Y-53874D02*
Y-52693D01*
X56335Y-29661D02*
X57516D01*
X56925Y-30252D02*
Y-29071D01*
X54366Y-25724D02*
X55547D01*
X54957Y-26315D02*
Y-25134D01*
X58303Y-57220D02*
X59484D01*
X58894Y-57811D02*
Y-56630D01*
X60272Y-53283D02*
X61453D01*
X60862Y-53874D02*
Y-52693D01*
X58303Y-49346D02*
X59484D01*
X58894Y-49937D02*
Y-48756D01*
X60272Y-45409D02*
X61453D01*
X60862Y-46000D02*
Y-44819D01*
X60272Y-37535D02*
X61453D01*
X60862Y-38126D02*
Y-36945D01*
X58303Y-33598D02*
X59484D01*
X58894Y-34189D02*
Y-33008D01*
X60272Y-29661D02*
X61453D01*
X60862Y-30252D02*
Y-29071D01*
X58303Y-25724D02*
X59484D01*
X58894Y-26315D02*
Y-25134D01*
X62240Y-57220D02*
X63421D01*
X62831Y-57811D02*
Y-56630D01*
X64209Y-53283D02*
X65390D01*
X64799Y-53874D02*
Y-52693D01*
X62240Y-49346D02*
X63421D01*
X62831Y-49937D02*
Y-48756D01*
X64209Y-45409D02*
X65390D01*
X64799Y-46000D02*
Y-44819D01*
X62240Y-41472D02*
X63421D01*
X62831Y-42063D02*
Y-40882D01*
X64209Y-37535D02*
X65390D01*
X64799Y-38126D02*
Y-36945D01*
X62240Y-33598D02*
X63421D01*
X62831Y-34189D02*
Y-33008D01*
X64209Y-29661D02*
X65390D01*
X64799Y-30252D02*
Y-29071D01*
X62240Y-25724D02*
X63421D01*
X62831Y-26315D02*
Y-25134D01*
X103579Y-53283D02*
X104760D01*
X104169Y-53874D02*
Y-52693D01*
X103579Y-45409D02*
X104760D01*
X104169Y-46000D02*
Y-44819D01*
X103579Y-37535D02*
X104760D01*
X104169Y-38126D02*
Y-36945D01*
X103579Y-29661D02*
X104760D01*
X104169Y-30252D02*
Y-29071D01*
X105547Y-57220D02*
X106728D01*
X106138Y-57811D02*
Y-56630D01*
X107516Y-53283D02*
X108697D01*
X108107Y-53874D02*
Y-52693D01*
X105547Y-49346D02*
X106728D01*
X106138Y-49937D02*
Y-48756D01*
X107516Y-45409D02*
X108697D01*
X108107Y-46000D02*
Y-44819D01*
X105547Y-41472D02*
X106728D01*
X106138Y-42063D02*
Y-40882D01*
X107516Y-37535D02*
X108697D01*
X108107Y-38126D02*
Y-36945D01*
X105547Y-33598D02*
X106728D01*
X106138Y-34189D02*
Y-33008D01*
X107516Y-29661D02*
X108697D01*
X108107Y-30252D02*
Y-29071D01*
X105547Y-25724D02*
X106728D01*
X106138Y-26315D02*
Y-25134D01*
X109485Y-57220D02*
X110666D01*
X110075Y-57811D02*
Y-56630D01*
X111453Y-53283D02*
X112634D01*
X112043Y-53874D02*
Y-52693D01*
X109485Y-49346D02*
X110666D01*
X110075Y-49937D02*
Y-48756D01*
X109485Y-33598D02*
X110666D01*
X110075Y-34189D02*
Y-33008D01*
X111453Y-29661D02*
X112634D01*
X112043Y-30252D02*
Y-29071D01*
X109485Y-25724D02*
X110666D01*
X110075Y-26315D02*
Y-25134D01*
X113421Y-57220D02*
X114602D01*
X114012Y-57811D02*
Y-56630D01*
X113421Y-25724D02*
X114602D01*
X114012Y-26315D02*
Y-25134D01*
X117359Y-57220D02*
X118540D01*
X117949Y-57811D02*
Y-56630D01*
X117359Y-25724D02*
X118540D01*
X117949Y-26315D02*
Y-25134D01*
X121296Y-57220D02*
X122476D01*
X121886Y-57811D02*
Y-56630D01*
X121296Y-25724D02*
X122476D01*
X121886Y-26315D02*
Y-25134D01*
X125233Y-57220D02*
X126414D01*
X125823Y-57811D02*
Y-56630D01*
X125233Y-25724D02*
X126414D01*
X125823Y-26315D02*
Y-25134D01*
X129170Y-57220D02*
X130351D01*
X129760Y-57811D02*
Y-56630D01*
X131138Y-53283D02*
X132319D01*
X131729Y-53874D02*
Y-52693D01*
X131138Y-29661D02*
X132319D01*
X131729Y-30252D02*
Y-29071D01*
X129170Y-25724D02*
X130351D01*
X129760Y-26315D02*
Y-25134D01*
X133107Y-57220D02*
X134288D01*
X133697Y-57811D02*
Y-56630D01*
X135075Y-53283D02*
X136256D01*
X135666Y-53874D02*
Y-52693D01*
X133107Y-49346D02*
X134288D01*
X133697Y-49937D02*
Y-48756D01*
X135075Y-45409D02*
X136256D01*
X135666Y-46000D02*
Y-44819D01*
X135075Y-37535D02*
X136256D01*
X135666Y-38126D02*
Y-36945D01*
X133107Y-33598D02*
X134288D01*
X133697Y-34189D02*
Y-33008D01*
X135075Y-29661D02*
X136256D01*
X135666Y-30252D02*
Y-29071D01*
X133107Y-25724D02*
X134288D01*
X133697Y-26315D02*
Y-25134D01*
X137044Y-57220D02*
X138225D01*
X137634Y-57811D02*
Y-56630D01*
X139012Y-53283D02*
X140193D01*
X139603Y-53874D02*
Y-52693D01*
X137044Y-49346D02*
X138225D01*
X137634Y-49937D02*
Y-48756D01*
X139012Y-45409D02*
X140193D01*
X139603Y-46000D02*
Y-44819D01*
X137044Y-41472D02*
X138225D01*
X137634Y-42063D02*
Y-40882D01*
X139012Y-37535D02*
X140193D01*
X139603Y-38126D02*
Y-36945D01*
X137044Y-33598D02*
X138225D01*
X137634Y-34189D02*
Y-33008D01*
X139012Y-29661D02*
X140193D01*
X139603Y-30252D02*
Y-29071D01*
X137044Y-25724D02*
X138225D01*
X137634Y-26315D02*
Y-25134D01*
X57410Y-1000D02*
X58591D01*
X58000Y-1591D02*
Y-410D01*
X102909Y-82500D02*
X104091D01*
X103500Y-83091D02*
Y-81910D01*
X71649Y19819D02*
X72830D01*
X72239Y19228D02*
Y20410D01*
X170909Y-40500D02*
X172091D01*
X171500Y-41091D02*
Y-39909D01*
X112909Y-77000D02*
X114091D01*
X113500Y-77591D02*
Y-76410D01*
X39909Y10000D02*
X41091D01*
X40500Y9409D02*
Y10591D01*
X154909Y-77500D02*
X156091D01*
X155500Y-78091D02*
Y-76910D01*
X-591Y0D02*
X591D01*
X0Y-591D02*
Y591D01*
X4909Y-2000D02*
X6091D01*
X5500Y-2591D02*
Y-1409D01*
X4909Y2500D02*
X6091D01*
X5500Y1909D02*
Y3091D01*
X159409Y-16500D02*
X160591D01*
X160000Y-17090D02*
Y-15910D01*
X159909Y-58500D02*
X161091D01*
X160500Y-59091D02*
Y-57910D01*
X149909Y-40000D02*
X151091D01*
X150500Y-40591D02*
Y-39409D01*
X149909Y-36500D02*
X151091D01*
X150500Y-37091D02*
Y-35909D01*
X9409Y-35000D02*
X10591D01*
X10000Y-35591D02*
Y-34409D01*
X4909Y-35000D02*
X6091D01*
X5500Y-35591D02*
Y-34409D01*
X27161Y-86091D02*
X28342D01*
X27751Y-86681D02*
Y-85500D01*
X105200Y-6626D02*
X106381D01*
X105791Y-7217D02*
Y-6036D01*
X168000Y-1015D02*
X169181D01*
X168591Y-1605D02*
Y-424D01*
X136409Y5000D02*
X137591D01*
X137000Y4409D02*
Y5591D01*
X-591Y-7500D02*
X591D01*
X0Y-8091D02*
Y-6909D01*
X16739Y-48830D02*
X17920D01*
X17330Y-49420D02*
Y-48239D01*
X155909Y-49500D02*
X157091D01*
X156500Y-50091D02*
Y-48909D01*
X159289Y-19880D02*
X160470D01*
X159880Y-20470D02*
Y-19289D01*
M02*
