G04*
G04 #@! TF.GenerationSoftware,Altium Limited,Altium Designer,25.2.1 (25)*
G04*
G04 Layer_Physical_Order=1*
G04 Layer_Color=255*
%FSLAX25Y25*%
%MOIN*%
G70*
G04*
G04 #@! TF.SameCoordinates,44C634AB-46FA-46F5-9040-7CAB15AB579A*
G04*
G04*
G04 #@! TF.FilePolarity,Positive*
G04*
G01*
G75*
%ADD14C,0.01000*%
%ADD16R,0.07087X0.03937*%
%ADD17R,0.04724X0.14567*%
%ADD18R,0.03937X0.03543*%
%ADD19R,0.07087X0.05118*%
%ADD20R,0.05118X0.07087*%
%ADD21R,0.03347X0.03740*%
%ADD22R,0.03937X0.02362*%
%ADD23R,0.02362X0.01968*%
%ADD24R,0.01968X0.01968*%
%ADD25R,0.04724X0.04724*%
%ADD26R,0.05118X0.01181*%
%ADD27R,0.03543X0.03937*%
%ADD28R,0.03740X0.03347*%
%ADD29R,0.01575X0.03347*%
%ADD30R,0.05315X0.04134*%
%ADD31R,0.02362X0.03937*%
%ADD32R,0.03740X0.02362*%
%ADD33R,0.02362X0.04134*%
%ADD34R,0.05669X0.04764*%
%ADD35R,0.04764X0.05669*%
%ADD36R,0.06693X0.04134*%
%AMCUSTOMSHAPE63*
4,1,6,0.02953,0.02953,-0.00197,0.02953,-0.00197,0.00197,-0.02953,0.00197,-0.02953,-0.02953,0.02953,-0.02953,0.02953,0.02953,0.0*%
%ADD63CUSTOMSHAPE63*%

%AMCUSTOMSHAPE64*
4,1,6,0.02953,0.00197,0.00197,0.00197,0.00197,0.02953,-0.02953,0.02953,-0.02953,-0.02953,0.02953,-0.02953,0.02953,0.00197,0.0*%
%ADD64CUSTOMSHAPE64*%

%ADD65C,0.04000*%
%ADD66C,0.06000*%
%ADD67C,0.02300*%
%ADD68C,0.02000*%
%ADD69C,0.00500*%
%ADD70O,0.07087X0.04724*%
%ADD71O,0.07874X0.04724*%
%ADD72C,0.02953*%
%ADD73R,0.39370X0.39370*%
%ADD74C,0.02362*%
G36*
X73149Y20584D02*
X73222Y20529D01*
X73301Y20480D01*
X73386Y20437D01*
X73476Y20402D01*
X73573Y20372D01*
X73675Y20349D01*
X73783Y20333D01*
X73897Y20323D01*
X74018Y20320D01*
X74018Y19320D01*
X73898Y19317D01*
X73784Y19307D01*
X73676Y19290D01*
X73574Y19267D01*
X73477Y19238D01*
X73387Y19202D01*
X73302Y19160D01*
X73223Y19110D01*
X73150Y19055D01*
X73083Y18993D01*
X73082Y20646D01*
X73149Y20584D01*
D02*
G37*
G36*
X84291Y18820D02*
X84280Y18915D01*
X84249Y19000D01*
X84198Y19075D01*
X84127Y19140D01*
X84036Y19195D01*
X83925Y19240D01*
X83793Y19275D01*
X83642Y19300D01*
X83470Y19315D01*
X83279Y19320D01*
Y20320D01*
X83469Y20322D01*
X83919Y20360D01*
X84029Y20382D01*
X84119Y20410D01*
X84189Y20443D01*
X84239Y20480D01*
X84269Y20523D01*
X84279Y20570D01*
X84291Y18820D01*
D02*
G37*
G36*
X71967Y18669D02*
X71880Y18685D01*
X71793Y18689D01*
X71706Y18682D01*
X71618Y18665D01*
X71530Y18636D01*
X71442Y18597D01*
X71354Y18547D01*
X71266Y18485D01*
X71178Y18414D01*
X71090Y18330D01*
X70561Y19216D01*
X70645Y19303D01*
X70790Y19475D01*
X70853Y19560D01*
X70909Y19646D01*
X70958Y19731D01*
X71000Y19815D01*
X71035Y19900D01*
X71063Y19984D01*
X71085Y20068D01*
X71967Y18669D01*
D02*
G37*
G36*
X38439Y18402D02*
X38239Y18195D01*
X37923Y17824D01*
X37809Y17661D01*
X37723Y17512D01*
X37665Y17378D01*
X37636Y17258D01*
X37635Y17154D01*
X37663Y17063D01*
X37720Y16988D01*
X36290Y18362D01*
X36367Y18308D01*
X36460Y18282D01*
X36566Y18283D01*
X36686Y18314D01*
X36820Y18371D01*
X36969Y18457D01*
X37131Y18571D01*
X37308Y18713D01*
X37704Y19081D01*
X38439Y18402D01*
D02*
G37*
G36*
X71067Y18308D02*
X70869Y18103D01*
X70558Y17735D01*
X70445Y17572D01*
X70360Y17424D01*
X70303Y17290D01*
X70275Y17169D01*
Y17063D01*
X70303Y16971D01*
X70360Y16894D01*
X68946Y18308D01*
X69024Y18251D01*
X69116Y18223D01*
X69222D01*
X69342Y18251D01*
X69476Y18308D01*
X69625Y18393D01*
X69787Y18506D01*
X69964Y18647D01*
X70360Y19015D01*
X71067Y18308D01*
D02*
G37*
G36*
X48151Y14691D02*
X48066Y14711D01*
X47982Y14720D01*
X47896Y14717D01*
X47811Y14703D01*
X47724Y14677D01*
X47638Y14640D01*
X47550Y14591D01*
X47463Y14531D01*
X47437Y14510D01*
X47182Y14209D01*
X47069Y14046D01*
X46984Y13897D01*
X46927Y13763D01*
X46899Y13643D01*
Y13537D01*
X46927Y13445D01*
X46984Y13367D01*
X45570Y14781D01*
X45648Y14725D01*
X45740Y14696D01*
X45846D01*
X45966Y14725D01*
X46100Y14781D01*
X46249Y14866D01*
X46411Y14979D01*
X46588Y15121D01*
X46916Y15425D01*
X47050Y15579D01*
X47114Y15663D01*
X47224Y15828D01*
X47269Y15909D01*
X47307Y15989D01*
X47339Y16068D01*
X47365Y16146D01*
X48151Y14691D01*
D02*
G37*
G36*
X162926Y15404D02*
X162957Y15112D01*
X162984Y14993D01*
X163019Y14893D01*
X163061Y14810D01*
X163111Y14746D01*
X163169Y14701D01*
X163234Y14673D01*
X163307Y14664D01*
X161756D01*
X161788Y14673D01*
X161816Y14701D01*
X161841Y14746D01*
X161863Y14810D01*
X161881Y14893D01*
X161896Y14993D01*
X161916Y15249D01*
X161923Y15577D01*
X162923D01*
X162926Y15404D01*
D02*
G37*
G36*
X133440Y14761D02*
X133239Y14460D01*
X133162Y14070D01*
Y12885D01*
X123278D01*
X123248Y12863D01*
X123061Y12711D01*
X122632Y12310D01*
X121961Y13054D01*
X122210Y13309D01*
X122500Y13653D01*
Y19000D01*
X133440D01*
Y14761D01*
D02*
G37*
G36*
X37742Y10915D02*
X37772Y10830D01*
X37822Y10755D01*
X37892Y10690D01*
X37982Y10635D01*
X38092Y10590D01*
X38222Y10555D01*
X38372Y10530D01*
X38542Y10515D01*
X38729Y10510D01*
X38846Y10513D01*
X38960Y10523D01*
X39068Y10539D01*
X39171Y10562D01*
X39268Y10591D01*
X39358Y10627D01*
X39443Y10669D01*
X39523Y10717D01*
X39596Y10772D01*
X39663Y10834D01*
X39650Y9180D01*
X39583Y9243D01*
X39511Y9299D01*
X39432Y9348D01*
X39348Y9391D01*
X39258Y9427D01*
X39161Y9457D01*
X39059Y9480D01*
X38951Y9497D01*
X38837Y9507D01*
X38724Y9510D01*
X38542Y9505D01*
X38372Y9490D01*
X38222Y9465D01*
X38092Y9430D01*
X37982Y9385D01*
X37892Y9330D01*
X37822Y9265D01*
X37772Y9190D01*
X37742Y9105D01*
X37732Y9010D01*
Y11010D01*
X37742Y10915D01*
D02*
G37*
G36*
X66447Y14500D02*
X70500D01*
Y12000D01*
X66000D01*
Y11840D01*
X65435D01*
Y7477D01*
X66000D01*
Y6500D01*
X60347D01*
Y7197D01*
X55985D01*
Y6500D01*
X55000D01*
Y-500D01*
X34500D01*
Y4500D01*
Y7839D01*
X38744D01*
Y7964D01*
X39244Y8171D01*
X39265Y8151D01*
X40066Y7819D01*
X40934D01*
X41736Y8151D01*
X42349Y8765D01*
X42681Y9566D01*
Y10434D01*
X42475Y10931D01*
X42807Y11431D01*
X47996D01*
Y13176D01*
X48028Y13384D01*
X48396Y13638D01*
X48934D01*
X49736Y13970D01*
X50266Y14500D01*
X64147D01*
Y14556D01*
X66447Y14568D01*
Y14500D01*
D02*
G37*
G36*
X69112Y8491D02*
X69027Y8461D01*
X68952Y8410D01*
X68887Y8339D01*
X68832Y8248D01*
X68787Y8137D01*
X68752Y8005D01*
X68727Y7854D01*
X68712Y7682D01*
X68707Y7489D01*
X67707D01*
X67702Y7682D01*
X67687Y7854D01*
X67662Y8005D01*
X67627Y8137D01*
X67582Y8248D01*
X67527Y8339D01*
X67462Y8410D01*
X67387Y8461D01*
X67302Y8491D01*
X67207Y8501D01*
X69207D01*
X69112Y8491D01*
D02*
G37*
G36*
X160744Y15093D02*
Y14782D01*
X160743Y14777D01*
X160744Y14762D01*
Y14702D01*
X160737Y14664D01*
X160744Y14626D01*
Y11500D01*
Y11342D01*
X160748Y11342D01*
X160747Y11335D01*
X160747Y11316D01*
X160744Y10708D01*
Y10330D01*
X164319D01*
Y11000D01*
X171500D01*
Y7686D01*
X171182Y7318D01*
X163477D01*
X163341Y7521D01*
X162463Y8399D01*
X161967Y8731D01*
X161381Y8847D01*
X159000D01*
Y10330D01*
X159201D01*
Y11500D01*
Y14664D01*
X159197D01*
X159198Y14671D01*
X159199Y14690D01*
X159201Y15297D01*
Y15676D01*
X155626D01*
Y15520D01*
X152226D01*
X151836Y15442D01*
X151505Y15221D01*
X151284Y14890D01*
X151232Y14624D01*
X147500D01*
Y18500D01*
X157337D01*
X160744Y15093D01*
D02*
G37*
G36*
X76065Y8187D02*
X76068Y8067D01*
X76078Y7953D01*
X76094Y7844D01*
X76117Y7742D01*
X76146Y7645D01*
X76182Y7555D01*
X76225Y7470D01*
X76274Y7391D01*
X76329Y7318D01*
X76391Y7251D01*
X74737Y7255D01*
X74800Y7322D01*
X74855Y7395D01*
X74904Y7473D01*
X74947Y7558D01*
X74983Y7648D01*
X75012Y7745D01*
X75035Y7847D01*
X75052Y7955D01*
X75062Y8069D01*
X75065Y8189D01*
X76065Y8187D01*
D02*
G37*
G36*
X162761Y6319D02*
X162781Y6034D01*
X162793Y5964D01*
X162808Y5907D01*
X162825Y5863D01*
X162845Y5831D01*
X162868Y5812D01*
X162893Y5806D01*
X161756D01*
X161757Y5812D01*
X161758Y5831D01*
X161760Y6439D01*
X162760D01*
X162761Y6319D01*
D02*
G37*
G36*
X110735Y4328D02*
X110725Y4423D01*
X110695Y4508D01*
X110644Y4583D01*
X110573Y4648D01*
X110482Y4703D01*
X110371Y4748D01*
X110239Y4783D01*
X110087Y4808D01*
X109915Y4823D01*
X109723Y4828D01*
Y5828D01*
X109915Y5833D01*
X110087Y5848D01*
X110239Y5873D01*
X110371Y5908D01*
X110482Y5953D01*
X110573Y6008D01*
X110644Y6073D01*
X110695Y6148D01*
X110725Y6233D01*
X110735Y6328D01*
Y4328D01*
D02*
G37*
G36*
X102849Y6117D02*
X102879Y6056D01*
X102929Y6003D01*
X102999Y5956D01*
X103089Y5917D01*
X103199Y5885D01*
X103329Y5860D01*
X103479Y5842D01*
X103649Y5831D01*
X103839Y5828D01*
Y4828D01*
X103648Y4823D01*
X103476Y4808D01*
X103325Y4783D01*
X103193Y4748D01*
X103082Y4703D01*
X102991Y4648D01*
X102920Y4583D01*
X102869Y4508D01*
X102838Y4423D01*
X102827Y4328D01*
X102839Y6185D01*
X102849Y6117D01*
D02*
G37*
G36*
X68712Y5025D02*
X68727Y4853D01*
X68752Y4702D01*
X68787Y4570D01*
X68832Y4459D01*
X68887Y4368D01*
X68952Y4297D01*
X69027Y4246D01*
X69112Y4215D01*
X69207Y4204D01*
X67545Y4216D01*
X67576Y4226D01*
X67603Y4256D01*
X67628Y4306D01*
X67649Y4376D01*
X67666Y4466D01*
X67681Y4576D01*
X67700Y4856D01*
X67707Y5216D01*
X68707D01*
X68712Y5025D01*
D02*
G37*
G36*
X158000Y10428D02*
X157980Y10330D01*
Y8847D01*
X156005D01*
X155420Y8731D01*
X154923Y8399D01*
X152406Y5882D01*
X152074Y5385D01*
X151958Y4800D01*
Y3413D01*
X151544Y3000D01*
X147500D01*
Y13605D01*
X152226D01*
Y14500D01*
X158000D01*
Y10428D01*
D02*
G37*
G36*
X119107Y4806D02*
X119079Y4714D01*
Y4608D01*
X119107Y4488D01*
X119164Y4354D01*
X119248Y4205D01*
X119362Y4042D01*
X119503Y3866D01*
X119871Y3470D01*
X119164Y2763D01*
X118958Y2960D01*
X118591Y3272D01*
X118428Y3385D01*
X118280Y3470D01*
X118145Y3526D01*
X118025Y3554D01*
X117919D01*
X117827Y3526D01*
X117749Y3470D01*
X119164Y4884D01*
X119107Y4806D01*
D02*
G37*
G36*
X19500Y8690D02*
X14537D01*
Y2698D01*
X9049D01*
Y13034D01*
Y20500D01*
X19500D01*
Y8690D01*
D02*
G37*
G36*
X59334Y3509D02*
X59365Y3424D01*
X59416Y3348D01*
X59487Y3283D01*
X59578Y3229D01*
X59690Y3184D01*
X59821Y3148D01*
X59972Y3124D01*
X60144Y3108D01*
X60335Y3104D01*
Y2104D01*
X59335Y2075D01*
X59323Y3604D01*
X59334Y3509D01*
D02*
G37*
G36*
X67557Y1603D02*
X67547Y1698D01*
X67517Y1784D01*
X67466Y1859D01*
X67396Y1924D01*
X67304Y1979D01*
X67193Y2024D01*
X67062Y2059D01*
X66910Y2083D01*
X66738Y2098D01*
X66545Y2104D01*
Y3104D01*
X66738Y3108D01*
X66910Y3124D01*
X67062Y3148D01*
X67193Y3184D01*
X67304Y3229D01*
X67396Y3283D01*
X67466Y3348D01*
X67517Y3424D01*
X67547Y3509D01*
X67557Y3604D01*
Y1603D01*
D02*
G37*
G36*
X158137Y2473D02*
X158090Y2444D01*
X158048Y2393D01*
X158013Y2324D01*
X157982Y2234D01*
X157958Y2124D01*
X157938Y1994D01*
X157925Y1843D01*
X157914Y1484D01*
X156914D01*
X156911Y1674D01*
X156889Y1994D01*
X156869Y2124D01*
X156845Y2234D01*
X156814Y2324D01*
X156779Y2393D01*
X156737Y2444D01*
X156691Y2473D01*
X156638Y2483D01*
X158189D01*
X158137Y2473D01*
D02*
G37*
G36*
X173500Y-5000D02*
Y-27000D01*
X162500D01*
Y-28500D01*
X158328Y-32672D01*
X154500D01*
Y-25500D01*
X140000D01*
Y-22500D01*
X168500D01*
Y-19000D01*
X170000Y-17500D01*
X170960D01*
X171000Y-17485D01*
Y-12929D01*
X171197D01*
Y-7614D01*
Y-5000D01*
Y-2071D01*
X170964D01*
X170686Y-1655D01*
X170772Y-1448D01*
Y-581D01*
X170440Y221D01*
X169826Y835D01*
X169025Y1166D01*
X168157D01*
X167355Y835D01*
X166742Y221D01*
X166410Y-581D01*
Y-1448D01*
X166495Y-1655D01*
X166218Y-2071D01*
X165260D01*
Y-5000D01*
X159000D01*
Y1472D01*
X159201D01*
Y2445D01*
X159209Y2483D01*
X159201Y2522D01*
Y5788D01*
X160731D01*
Y4416D01*
X160744Y4348D01*
Y2483D01*
X160748Y2483D01*
X160747Y2477D01*
X160747Y2458D01*
X160745Y2065D01*
X160767Y2044D01*
X160917Y1924D01*
X161074Y1818D01*
X161235Y1726D01*
X161403Y1648D01*
X161577Y1585D01*
X161756Y1535D01*
X161942Y1500D01*
X162133Y1479D01*
X162330Y1472D01*
X164319D01*
Y6000D01*
X173500D01*
Y-5000D01*
D02*
G37*
G36*
X99500Y7197D02*
X99489D01*
Y1570D01*
X99489Y1260D01*
X99494Y1102D01*
Y1102D01*
X99500Y907D01*
Y907D01*
X99753Y654D01*
X99996Y897D01*
X100459Y1000D01*
X119227D01*
Y-3500D01*
X100123D01*
Y-3575D01*
X100110Y-3578D01*
X100031Y-3630D01*
X99489D01*
Y-4475D01*
X99480Y-4520D01*
Y-9000D01*
X99489Y-9044D01*
Y-9567D01*
X99676D01*
X99779Y-9721D01*
X100110Y-9942D01*
X100500Y-10020D01*
X102500D01*
Y-21766D01*
X102615Y-21833D01*
X102750Y-21891D01*
X102869Y-21920D01*
X102975Y-21921D01*
X103066Y-21894D01*
X103143Y-21839D01*
X102500Y-22482D01*
Y-26500D01*
X96851D01*
X96498Y-26146D01*
X96505Y-18573D01*
X96520Y-18500D01*
Y-3500D01*
Y-2500D01*
X96442Y-2110D01*
X96221Y-1779D01*
X96000Y-1631D01*
Y-543D01*
X96050Y-510D01*
X96106Y-426D01*
X96177Y-355D01*
X96182Y-347D01*
X96182Y-347D01*
X96182Y-347D01*
X96182Y-347D01*
X96220Y-255D01*
X96271Y-179D01*
X96289Y-89D01*
X96291Y-83D01*
X96294Y-78D01*
X96295Y-73D01*
X96334Y20D01*
X96352Y113D01*
Y213D01*
X96372Y312D01*
Y10086D01*
X96352Y10185D01*
X96352Y10285D01*
X96334Y10378D01*
X96295Y10471D01*
X96294Y10477D01*
X96291Y10482D01*
X96224Y10642D01*
X96223Y10648D01*
X96220Y10653D01*
X96182Y10746D01*
X96129Y10824D01*
X96058Y10895D01*
X96002Y10979D01*
X96000Y10981D01*
Y11702D01*
X95702Y12000D01*
X77094D01*
Y14604D01*
X77418Y14928D01*
X78352D01*
X78500Y14958D01*
X82002D01*
Y15500D01*
X99500D01*
Y7197D01*
D02*
G37*
G36*
X152315Y900D02*
X152068Y647D01*
X151514Y-11D01*
X151392Y-197D01*
X151349Y-274D01*
Y-7022D01*
X133522D01*
X133500Y-7000D01*
Y-4520D01*
X133890Y-4442D01*
X134221Y-4221D01*
X134442Y-3890D01*
X134520Y-3500D01*
Y-1272D01*
X139313D01*
Y-1304D01*
X145053D01*
Y-1272D01*
X145500D01*
X145890Y-1195D01*
X146221Y-974D01*
X146442Y-643D01*
X146520Y-253D01*
Y1026D01*
X150880Y1035D01*
X150900Y1015D01*
X150909Y1020D01*
X151079Y1141D01*
X151267Y1295D01*
X151700Y1700D01*
X152315Y900D01*
D02*
G37*
G36*
X95210Y10329D02*
X95281Y10258D01*
X95281Y10258D01*
X95283Y10252D01*
X95349Y10091D01*
X95352Y10087D01*
X95352Y10086D01*
X95352Y9986D01*
X95352Y9986D01*
Y312D01*
X95352Y311D01*
X95349Y306D01*
X95346Y300D01*
X95329Y211D01*
X77006D01*
Y4768D01*
X77411Y5174D01*
X77743Y5976D01*
Y6843D01*
X77411Y7645D01*
X77094Y7962D01*
Y10799D01*
X94740D01*
X95210Y10329D01*
D02*
G37*
G36*
X145500Y13500D02*
Y-253D01*
X134181D01*
Y6868D01*
X134460D01*
Y12805D01*
X134181D01*
Y14070D01*
X134460D01*
Y19000D01*
X145500D01*
Y13500D01*
D02*
G37*
G36*
X157865Y-707D02*
X156414Y-719D01*
X156509Y-708D01*
X156594Y-677D01*
X156669Y-626D01*
X156734Y-555D01*
X156789Y-464D01*
X156834Y-353D01*
X156869Y-221D01*
X156894Y-70D01*
X156909Y102D01*
X156914Y293D01*
X157914D01*
X157865Y-707D01*
D02*
G37*
G36*
X58017Y-2181D02*
X57926Y-2187D01*
X57835Y-2201D01*
X57745Y-2223D01*
X57655Y-2255D01*
X57566Y-2294D01*
X57477Y-2343D01*
X57388Y-2400D01*
X57300Y-2465D01*
X57213Y-2539D01*
X57126Y-2622D01*
X56400Y-1933D01*
X56482Y-1846D01*
X56556Y-1758D01*
X56621Y-1670D01*
X56676Y-1581D01*
X56722Y-1492D01*
X56760Y-1403D01*
X56788Y-1313D01*
X56808Y-1223D01*
X56818Y-1132D01*
X56820Y-1040D01*
X58017Y-2181D01*
D02*
G37*
G36*
X169355Y-1925D02*
X169300Y-1998D01*
X169251Y-2077D01*
X169208Y-2161D01*
X169173Y-2252D01*
X169143Y-2348D01*
X169120Y-2451D01*
X169116Y-2479D01*
X169136Y-2599D01*
X169171Y-2730D01*
X169216Y-2842D01*
X169271Y-2933D01*
X169336Y-3004D01*
X169411Y-3054D01*
X169496Y-3085D01*
X169591Y-3095D01*
X167591D01*
X167686Y-3085D01*
X167771Y-3054D01*
X167846Y-3004D01*
X167911Y-2933D01*
X167966Y-2842D01*
X168011Y-2730D01*
X168046Y-2599D01*
X168066Y-2479D01*
X168061Y-2451D01*
X168038Y-2348D01*
X168009Y-2252D01*
X167973Y-2161D01*
X167931Y-2077D01*
X167882Y-1998D01*
X167826Y-1925D01*
X167764Y-1858D01*
X169418D01*
X169355Y-1925D01*
D02*
G37*
G36*
X56010Y-3738D02*
X55878Y-3872D01*
X55604Y-4191D01*
X55552Y-4268D01*
X55521Y-4332D01*
X55510Y-4382D01*
X55518Y-4417D01*
X55547Y-4438D01*
X55595Y-4445D01*
X53257D01*
X53387Y-4434D01*
X53527Y-4403D01*
X53674Y-4350D01*
X53831Y-4275D01*
X53996Y-4180D01*
X54169Y-4063D01*
X54351Y-3925D01*
X54741Y-3586D01*
X54949Y-3384D01*
X56010Y-3738D01*
D02*
G37*
G36*
X157109Y-4618D02*
X157024Y-4648D01*
X156949Y-4699D01*
X156884Y-4770D01*
X156829Y-4861D01*
X156784Y-4972D01*
X156749Y-5104D01*
X156724Y-5256D01*
X156709Y-5428D01*
X156704Y-5620D01*
X155704D01*
X155699Y-5428D01*
X155684Y-5256D01*
X155659Y-5104D01*
X155624Y-4972D01*
X155579Y-4861D01*
X155524Y-4770D01*
X155459Y-4699D01*
X155384Y-4648D01*
X155299Y-4618D01*
X155204Y-4608D01*
X157204D01*
X157109Y-4618D01*
D02*
G37*
G36*
X122464Y-7106D02*
X122454Y-7011D01*
X122424Y-6926D01*
X122373Y-6851D01*
X122302Y-6786D01*
X122211Y-6731D01*
X122100Y-6686D01*
X121968Y-6651D01*
X121817Y-6626D01*
X121645Y-6611D01*
X121452Y-6606D01*
Y-5606D01*
X121645Y-5601D01*
X121817Y-5586D01*
X121968Y-5561D01*
X122100Y-5526D01*
X122211Y-5481D01*
X122302Y-5426D01*
X122373Y-5361D01*
X122424Y-5286D01*
X122454Y-5201D01*
X122464Y-5106D01*
Y-7106D01*
D02*
G37*
G36*
X119243Y-5201D02*
X119273Y-5286D01*
X119324Y-5361D01*
X119395Y-5426D01*
X119486Y-5481D01*
X119597Y-5526D01*
X119729Y-5561D01*
X119880Y-5586D01*
X120053Y-5601D01*
X120245Y-5606D01*
Y-6606D01*
X120053Y-6611D01*
X119880Y-6626D01*
X119729Y-6651D01*
X119597Y-6686D01*
X119486Y-6731D01*
X119395Y-6786D01*
X119324Y-6851D01*
X119273Y-6926D01*
X119243Y-7011D01*
X119233Y-7106D01*
Y-5106D01*
X119243Y-5201D01*
D02*
G37*
G36*
X32000Y-2433D02*
X40500D01*
Y-7062D01*
X40479Y-7166D01*
Y-7172D01*
X39722D01*
X39624Y-7192D01*
X39477D01*
X39379Y-7172D01*
X38500D01*
X38328Y-7207D01*
X24676D01*
Y-2603D01*
X23766D01*
Y-1661D01*
X22554D01*
X22549Y-1659D01*
X22398Y-1558D01*
X22381Y-1555D01*
X22365Y-1545D01*
X22186Y-1516D01*
X22008Y-1480D01*
X21000D01*
Y-397D01*
X21655D01*
Y8690D01*
X21000D01*
Y20500D01*
X32000D01*
Y-2433D01*
D02*
G37*
G36*
X156709Y-7156D02*
X156724Y-7328D01*
X156749Y-7480D01*
X156784Y-7612D01*
X156829Y-7723D01*
X156884Y-7814D01*
X156949Y-7885D01*
X157024Y-7936D01*
X157109Y-7966D01*
X157204Y-7976D01*
X155204D01*
X155299Y-7966D01*
X155384Y-7936D01*
X155459Y-7885D01*
X155524Y-7814D01*
X155579Y-7723D01*
X155624Y-7612D01*
X155659Y-7480D01*
X155684Y-7328D01*
X155699Y-7156D01*
X155704Y-6964D01*
X156704D01*
X156709Y-7156D01*
D02*
G37*
G36*
X49500Y-12500D02*
X38500D01*
Y-8192D01*
X39379D01*
X39527Y-8221D01*
X39575D01*
X39722Y-8192D01*
X41479D01*
Y-7365D01*
X41520Y-7163D01*
Y-2433D01*
X41881Y-2000D01*
X49500D01*
Y-12500D01*
D02*
G37*
G36*
X112000Y-9000D02*
X100500D01*
Y-4520D01*
X112000D01*
Y-9000D01*
D02*
G37*
G36*
X166284Y-10917D02*
X166274Y-10822D01*
X166244Y-10737D01*
X166193Y-10662D01*
X166122Y-10597D01*
X166031Y-10542D01*
X165920Y-10497D01*
X165788Y-10462D01*
X165636Y-10437D01*
X165464Y-10422D01*
X165272Y-10417D01*
Y-9417D01*
X165464Y-9412D01*
X165636Y-9397D01*
X165788Y-9372D01*
X165920Y-9337D01*
X166031Y-9292D01*
X166122Y-9237D01*
X166193Y-9172D01*
X166244Y-9097D01*
X166274Y-9012D01*
X166284Y-8917D01*
Y-10917D01*
D02*
G37*
G36*
X162981Y-9012D02*
X163012Y-9097D01*
X163062Y-9172D01*
X163133Y-9237D01*
X163224Y-9292D01*
X163336Y-9337D01*
X163467Y-9372D01*
X163619Y-9397D01*
X163791Y-9412D01*
X163983Y-9417D01*
Y-10417D01*
X163791Y-10422D01*
X163619Y-10437D01*
X163467Y-10462D01*
X163336Y-10497D01*
X163224Y-10542D01*
X163133Y-10597D01*
X163062Y-10662D01*
X163012Y-10737D01*
X162981Y-10822D01*
X162971Y-10917D01*
Y-8917D01*
X162981Y-9012D01*
D02*
G37*
G36*
X7500Y13047D02*
Y1500D01*
X7981D01*
Y1668D01*
X8172Y1664D01*
X8491Y1633D01*
X8621Y1606D01*
X8731Y1571D01*
X8822Y1528D01*
X8860Y1500D01*
X12729D01*
X12787Y1668D01*
X13224Y1596D01*
X13254Y1606D01*
X13385Y1633D01*
X13534Y1653D01*
X13704Y1664D01*
X13894Y1668D01*
Y1500D01*
X14549D01*
Y1668D01*
X14741Y1673D01*
X14912Y1688D01*
X15064Y1713D01*
X15195Y1748D01*
X15306Y1793D01*
X15398Y1848D01*
X15469Y1913D01*
X15520Y1988D01*
X15551Y2073D01*
X15561Y2168D01*
X15557Y1649D01*
X15668Y1668D01*
Y1500D01*
X16000D01*
Y6000D01*
X19500D01*
Y-1000D01*
X9000D01*
Y-1450D01*
X7970D01*
Y-1652D01*
X7969Y-1652D01*
X7951Y-1664D01*
X7951Y-1664D01*
X7951Y-1664D01*
X7880Y-1735D01*
X7814Y-1779D01*
X7770Y-1845D01*
X7670Y-1945D01*
X7670Y-1945D01*
X7670Y-1945D01*
X7615Y-2076D01*
X7593Y-2110D01*
X7586Y-2149D01*
X7564Y-2202D01*
X7558Y-2210D01*
X7556Y-2220D01*
X7518Y-2313D01*
Y-2313D01*
X7518Y-2313D01*
X7500Y-2402D01*
Y-2502D01*
X7480Y-2600D01*
Y-8945D01*
X7500Y-9043D01*
X7500Y-9144D01*
X7520Y-9244D01*
X7558Y-9337D01*
X7575Y-9418D01*
Y-14610D01*
X7558Y-14691D01*
X7520Y-14783D01*
X7500Y-14884D01*
Y-14984D01*
X7497Y-15000D01*
X3337D01*
Y5000D01*
X3260Y5390D01*
X3080Y5660D01*
Y6030D01*
X2000D01*
Y13473D01*
X7023Y13541D01*
X7500Y13047D01*
D02*
G37*
G36*
X95500Y-18500D02*
X82000D01*
Y-14520D01*
X81969D01*
X82000Y-14516D01*
Y-2500D01*
X95500D01*
Y-18500D01*
D02*
G37*
G36*
X165000Y-21480D02*
X154611D01*
Y-13500D01*
X165000D01*
Y-21480D01*
D02*
G37*
G36*
X133440Y7559D02*
X133239Y7259D01*
X133162Y6868D01*
Y3555D01*
X132267D01*
Y-807D01*
X133349D01*
X133460Y-974D01*
X133500Y-1000D01*
Y-3500D01*
X130500D01*
Y-23500D01*
X126500D01*
Y-8287D01*
X127181D01*
Y-3925D01*
X126500D01*
Y-3500D01*
X123000D01*
Y-807D01*
X127181D01*
Y3555D01*
X124005D01*
X123967Y3593D01*
X123838Y3786D01*
X123039Y4585D01*
Y11261D01*
X123278Y11500D01*
X133440D01*
Y7559D01*
D02*
G37*
G36*
X104994Y-24379D02*
X105082Y-24451D01*
X105169Y-24511D01*
X105256Y-24559D01*
X105343Y-24596D01*
X105428Y-24621D01*
X105513Y-24634D01*
X105598Y-24636D01*
X105682Y-24625D01*
X105765Y-24604D01*
X105010Y-26075D01*
X104984Y-25999D01*
X104951Y-25922D01*
X104911Y-25844D01*
X104865Y-25764D01*
X104755Y-25602D01*
X104690Y-25519D01*
X104541Y-25349D01*
X104456Y-25262D01*
X104905Y-24296D01*
X104994Y-24379D01*
D02*
G37*
G36*
X109231Y-26551D02*
X109165Y-26489D01*
X109092Y-26433D01*
X109013Y-26384D01*
X108928Y-26342D01*
X108838Y-26306D01*
X108741Y-26276D01*
X108639Y-26254D01*
X108530Y-26237D01*
X108416Y-26228D01*
X108296Y-26224D01*
Y-25224D01*
X108416Y-25221D01*
X108530Y-25211D01*
X108639Y-25195D01*
X108741Y-25172D01*
X108838Y-25143D01*
X108928Y-25107D01*
X109013Y-25064D01*
X109092Y-25015D01*
X109165Y-24960D01*
X109231Y-24897D01*
Y-26551D01*
D02*
G37*
G36*
X107048Y-24960D02*
X107121Y-25015D01*
X107200Y-25064D01*
X107285Y-25107D01*
X107375Y-25143D01*
X107472Y-25172D01*
X107574Y-25195D01*
X107683Y-25211D01*
X107797Y-25221D01*
X107917Y-25224D01*
Y-26224D01*
X107797Y-26228D01*
X107683Y-26237D01*
X107574Y-26254D01*
X107472Y-26276D01*
X107375Y-26306D01*
X107285Y-26342D01*
X107200Y-26384D01*
X107121Y-26433D01*
X107048Y-26489D01*
X106982Y-26551D01*
Y-24897D01*
X107048Y-24960D01*
D02*
G37*
G36*
X51169Y-26896D02*
X51100Y-26911D01*
X51039Y-26939D01*
X50984Y-26978D01*
X50937Y-27030D01*
X50897Y-27094D01*
X50865Y-27170D01*
X50839Y-27258D01*
X50821Y-27358D01*
X50810Y-27470D01*
X50806Y-27595D01*
X49806Y-27374D01*
X49872Y-26003D01*
X51169Y-26896D01*
D02*
G37*
G36*
X2318Y-31497D02*
X2315Y-31500D01*
X-2500D01*
Y5000D01*
X2318Y5000D01*
Y-31497D01*
D02*
G37*
G36*
X22500Y-2958D02*
X22500Y-6500D01*
Y-31539D01*
X8600D01*
X8500Y-31519D01*
Y-15083D01*
X8520Y-14982D01*
X8594D01*
Y-9045D01*
X8520D01*
X8500Y-8945D01*
Y-2600D01*
X8518Y-2512D01*
X8535Y-2500D01*
X22008D01*
X22500Y-2958D01*
D02*
G37*
G36*
X66331Y-22335D02*
X66511Y-22789D01*
X66812Y-23190D01*
X67232Y-23538D01*
X67772Y-23832D01*
X68432Y-24072D01*
X69212Y-24259D01*
X69520Y-24305D01*
Y-24000D01*
X90000D01*
Y-30500D01*
X72272D01*
X71130Y-30530D01*
X70108Y-30620D01*
X69207Y-30770D01*
X68425Y-30980D01*
X67764Y-31250D01*
X67223Y-31580D01*
X66802Y-31970D01*
X66501Y-32420D01*
X66320Y-32930D01*
X66259Y-33500D01*
X66272Y-21827D01*
X66331Y-22335D01*
D02*
G37*
G36*
X50816Y-32550D02*
X50953Y-34310D01*
X51035Y-34790D01*
X51136Y-35215D01*
X51255Y-35587D01*
X51392Y-35904D01*
X51548Y-36168D01*
X51722Y-36379D01*
X48891D01*
X49065Y-36168D01*
X49221Y-35904D01*
X49358Y-35587D01*
X49477Y-35215D01*
X49578Y-34790D01*
X49660Y-34310D01*
X49770Y-33191D01*
X49797Y-32550D01*
X49806Y-31855D01*
X50806D01*
X50816Y-32550D01*
D02*
G37*
G36*
X168500Y-41500D02*
X148500D01*
Y-34500D01*
X158500D01*
X159272Y-33728D01*
X159369D01*
Y-33631D01*
X164980Y-28020D01*
X168500D01*
Y-41500D01*
D02*
G37*
G36*
X172265Y-41410D02*
X172209Y-41483D01*
X172160Y-41562D01*
X172118Y-41647D01*
X172082Y-41737D01*
X172052Y-41834D01*
X172029Y-41936D01*
X172013Y-42044D01*
X172003Y-42159D01*
X172000Y-42279D01*
X171000D01*
X170997Y-42159D01*
X170987Y-42044D01*
X170971Y-41936D01*
X170948Y-41834D01*
X170918Y-41737D01*
X170882Y-41647D01*
X170840Y-41562D01*
X170791Y-41483D01*
X170735Y-41410D01*
X170673Y-41344D01*
X172327D01*
X172265Y-41410D01*
D02*
G37*
G36*
X172005Y-42497D02*
X172020Y-42669D01*
X172045Y-42821D01*
X172080Y-42953D01*
X172125Y-43064D01*
X172180Y-43155D01*
X172245Y-43226D01*
X172320Y-43277D01*
X172405Y-43307D01*
X172500Y-43317D01*
X170500D01*
X170595Y-43307D01*
X170680Y-43277D01*
X170755Y-43226D01*
X170820Y-43155D01*
X170875Y-43064D01*
X170920Y-42953D01*
X170955Y-42821D01*
X170980Y-42669D01*
X170995Y-42497D01*
X171000Y-42305D01*
X172000D01*
X172005Y-42497D01*
D02*
G37*
G36*
X-20Y-48000D02*
X58Y-48390D01*
X279Y-48721D01*
X1279Y-49721D01*
X1610Y-49942D01*
X2000Y-50020D01*
X3980D01*
Y-50952D01*
X4006Y-51082D01*
X4015Y-51215D01*
X4045Y-51276D01*
X4058Y-51342D01*
X4121Y-51437D01*
X4398Y-52104D01*
X4478Y-52715D01*
X4398Y-53327D01*
X4121Y-53994D01*
X4058Y-54089D01*
X4045Y-54155D01*
X4015Y-54215D01*
X4006Y-54348D01*
X3980Y-54479D01*
Y-54486D01*
X3879Y-54506D01*
X3746Y-54515D01*
X3685Y-54545D01*
X3619Y-54558D01*
X3508Y-54632D01*
X3389Y-54691D01*
X3316Y-54747D01*
X1188D01*
Y-55522D01*
X1058Y-55716D01*
X1002Y-56000D01*
X-737D01*
X-1053Y-55869D01*
X-2039D01*
X-2355Y-56000D01*
X-20000D01*
Y-49605D01*
X-19500Y-49423D01*
X-18164Y-50137D01*
X-16613Y-50608D01*
X-15000Y-50767D01*
X-13387Y-50608D01*
X-11836Y-50137D01*
X-10407Y-49373D01*
X-9155Y-48345D01*
X-8127Y-47093D01*
X-7363Y-45663D01*
X-6892Y-44113D01*
X-6733Y-42500D01*
X-20D01*
Y-48000D01*
D02*
G37*
G36*
X172094Y-51756D02*
X172009Y-51786D01*
X171934Y-51836D01*
X171869Y-51906D01*
X171814Y-51996D01*
X171769Y-52106D01*
X171734Y-52236D01*
X171709Y-52386D01*
X171694Y-52556D01*
X171689Y-52746D01*
X170689D01*
X170684Y-52556D01*
X170669Y-52386D01*
X170644Y-52236D01*
X170609Y-52106D01*
X170564Y-51996D01*
X170509Y-51906D01*
X170444Y-51836D01*
X170369Y-51786D01*
X170284Y-51756D01*
X170189Y-51746D01*
X172189D01*
X172094Y-51756D01*
D02*
G37*
G36*
X171694Y-54273D02*
X171709Y-54445D01*
X171734Y-54597D01*
X171769Y-54728D01*
X171814Y-54839D01*
X171869Y-54931D01*
X171934Y-55001D01*
X172009Y-55052D01*
X172094Y-55082D01*
X172189Y-55093D01*
X170189D01*
X170284Y-55082D01*
X170369Y-55052D01*
X170444Y-55001D01*
X170509Y-54931D01*
X170564Y-54839D01*
X170609Y-54728D01*
X170644Y-54597D01*
X170669Y-54445D01*
X170684Y-54273D01*
X170689Y-54080D01*
X171689D01*
X171694Y-54273D01*
D02*
G37*
G36*
X110072Y-53536D02*
X108956Y-54133D01*
X108360Y-55249D01*
X107276Y-54919D01*
X107615Y-54357D01*
X108905Y-54082D01*
X109180Y-52792D01*
X109742Y-52453D01*
X110072Y-53536D01*
D02*
G37*
G36*
X107590Y-56019D02*
X107507Y-56107D01*
X107435Y-56195D01*
X107375Y-56283D01*
X107326Y-56371D01*
X107288Y-56458D01*
X107262Y-56544D01*
X107247Y-56630D01*
X107244Y-56716D01*
X107252Y-56801D01*
X107271Y-56886D01*
X105826Y-56081D01*
X105906Y-56056D01*
X105986Y-56025D01*
X106067Y-55987D01*
X106149Y-55942D01*
X106231Y-55891D01*
X106399Y-55770D01*
X106484Y-55699D01*
X106656Y-55538D01*
X107590Y-56019D01*
D02*
G37*
G36*
X162540Y-58994D02*
X162530Y-58987D01*
X162500Y-58982D01*
X162450Y-58977D01*
X162180Y-58966D01*
X162157Y-58966D01*
X162062Y-58974D01*
X161954Y-58991D01*
X161852Y-59015D01*
X161757Y-59045D01*
X161667Y-59083D01*
X161584Y-59126D01*
X161506Y-59177D01*
X161435Y-59234D01*
X161370Y-59298D01*
X161316Y-57646D01*
X161385Y-57706D01*
X161459Y-57759D01*
X161539Y-57807D01*
X161625Y-57848D01*
X161717Y-57882D01*
X161814Y-57911D01*
X161917Y-57933D01*
X161936Y-57936D01*
X162054Y-57916D01*
X162186Y-57881D01*
X162297Y-57836D01*
X162388Y-57781D01*
X162459Y-57716D01*
X162510Y-57641D01*
X162541Y-57556D01*
X162552Y-57461D01*
X162540Y-58994D01*
D02*
G37*
G36*
X105804Y-58353D02*
X105719Y-58334D01*
X105634Y-58326D01*
X105548Y-58329D01*
X105462Y-58344D01*
X105375Y-58371D01*
X105288Y-58408D01*
X105201Y-58457D01*
X105113Y-58517D01*
X105025Y-58589D01*
X104936Y-58672D01*
X104456Y-57739D01*
X104617Y-57566D01*
X104687Y-57481D01*
X104809Y-57314D01*
X104860Y-57231D01*
X104904Y-57149D01*
X104943Y-57068D01*
X104974Y-56988D01*
X104999Y-56909D01*
X105804Y-58353D01*
D02*
G37*
G36*
X138733Y-57677D02*
X138723Y-57761D01*
X138724Y-57845D01*
X138738Y-57930D01*
X138762Y-58016D01*
X138799Y-58102D01*
X138847Y-58189D01*
X138907Y-58276D01*
X138979Y-58365D01*
X139062Y-58453D01*
X138096Y-58902D01*
X138010Y-58818D01*
X137757Y-58604D01*
X137675Y-58545D01*
X137514Y-58447D01*
X137436Y-58408D01*
X137359Y-58375D01*
X137283Y-58348D01*
X138755Y-57594D01*
X138733Y-57677D01*
D02*
G37*
G36*
X168402Y-52758D02*
X168500D01*
Y-59000D01*
X166304D01*
X166000Y-58696D01*
Y-55000D01*
X165890D01*
Y-54068D01*
X161528D01*
Y-55000D01*
X153500D01*
Y-48000D01*
X168402D01*
Y-52758D01*
D02*
G37*
G36*
X13796Y-47087D02*
X18425D01*
X18500Y-47163D01*
Y-62318D01*
X18371Y-62371D01*
X13447D01*
Y-62410D01*
X13409D01*
X13371Y-62371D01*
X8306D01*
Y-61243D01*
X2267D01*
Y-59306D01*
X8306D01*
Y-59034D01*
X13447Y-58985D01*
Y-59061D01*
X14518D01*
Y-58114D01*
X14524D01*
Y-52571D01*
X14518D01*
Y-51018D01*
X14154Y-50654D01*
X13512Y-51297D01*
X13307Y-51099D01*
X12939Y-50787D01*
X12777Y-50674D01*
X12628Y-50589D01*
X12494Y-50533D01*
X12374Y-50504D01*
X12268D01*
X12176Y-50533D01*
X12098Y-50589D01*
X12187Y-50500D01*
X9500D01*
Y-47000D01*
X13356D01*
X13796Y-47087D01*
D02*
G37*
G36*
X158257Y-57595D02*
X158287Y-57680D01*
X158338Y-57755D01*
X158409Y-57820D01*
X158500Y-57875D01*
X158611Y-57920D01*
X158743Y-57955D01*
X158895Y-57980D01*
X158962Y-57986D01*
X159064Y-57971D01*
X159166Y-57948D01*
X159263Y-57918D01*
X159353Y-57882D01*
X159438Y-57840D01*
X159517Y-57791D01*
X159590Y-57735D01*
X159657Y-57673D01*
Y-59327D01*
X159590Y-59265D01*
X159517Y-59209D01*
X159438Y-59160D01*
X159353Y-59118D01*
X159263Y-59082D01*
X159166Y-59052D01*
X159064Y-59029D01*
X158962Y-59014D01*
X158895Y-59020D01*
X158743Y-59045D01*
X158611Y-59080D01*
X158500Y-59125D01*
X158409Y-59180D01*
X158338Y-59245D01*
X158287Y-59320D01*
X158257Y-59405D01*
X158247Y-59500D01*
Y-57500D01*
X158257Y-57595D01*
D02*
G37*
G36*
X8294Y-65166D02*
X8104Y-65168D01*
X7654Y-65200D01*
X7544Y-65219D01*
X7454Y-65243D01*
X7384Y-65271D01*
X7334Y-65303D01*
X7304Y-65340D01*
X7294Y-65381D01*
Y-64224D01*
X7304Y-64213D01*
X7334Y-64203D01*
X7384Y-64194D01*
X7454Y-64187D01*
X7784Y-64171D01*
X8294Y-64166D01*
Y-65166D01*
D02*
G37*
G36*
X10091Y-65089D02*
X10447Y-65389D01*
X10606Y-65499D01*
X10754Y-65583D01*
X10889Y-65640D01*
X11012Y-65672D01*
X11123Y-65677D01*
X11222Y-65655D01*
X11309Y-65608D01*
X9698Y-66825D01*
X9763Y-66756D01*
X9798Y-66671D01*
X9803Y-66570D01*
X9778Y-66452D01*
X9722Y-66319D01*
X9636Y-66170D01*
X9520Y-66004D01*
X9374Y-65822D01*
X8991Y-65411D01*
X9895Y-64900D01*
X10091Y-65089D01*
D02*
G37*
G36*
X8301Y-32519D02*
X8401Y-32539D01*
X8502Y-32539D01*
X8600Y-32558D01*
X13796D01*
Y-41500D01*
X23480D01*
Y-63500D01*
X23558Y-63890D01*
X23779Y-64221D01*
X24000Y-64369D01*
X24110Y-64442D01*
X24500Y-64520D01*
X68500D01*
X68890Y-64442D01*
X69221Y-64221D01*
X69442Y-63890D01*
X69520Y-63500D01*
Y-59500D01*
X111000D01*
Y-68500D01*
X39654D01*
X39349Y-67765D01*
X38735Y-67151D01*
X37934Y-66819D01*
X37066D01*
X36265Y-67151D01*
X35651Y-67765D01*
X35346Y-68500D01*
X20000D01*
X20000Y-86000D01*
X9500D01*
Y-83655D01*
X9455Y-83628D01*
X9343Y-83583D01*
X9212Y-83548D01*
X9061Y-83523D01*
X8889Y-83508D01*
X8698Y-83503D01*
Y-83501D01*
X8295D01*
Y-83503D01*
X8161Y-83501D01*
X3104D01*
X2993Y-83455D01*
X2173Y-83347D01*
Y-81353D01*
X7275D01*
Y-82523D01*
X7287Y-82535D01*
X7295D01*
Y-82333D01*
X7305Y-82366D01*
X7335Y-82394D01*
X7385Y-82420D01*
X7455Y-82442D01*
X7545Y-82460D01*
X7655Y-82476D01*
X7935Y-82496D01*
X8295Y-82503D01*
Y-82535D01*
X8698D01*
Y-82503D01*
X9340Y-82535D01*
X9500D01*
Y-82500D01*
X14677Y-82500D01*
X14441Y-82263D01*
X14426Y-81770D01*
X14426D01*
Y-76423D01*
X14397D01*
Y-75031D01*
X10031D01*
X9500Y-74500D01*
Y-69942D01*
X14426D01*
Y-64596D01*
X11212D01*
X11196Y-64594D01*
X11192Y-64596D01*
X11092D01*
X11066Y-64577D01*
X10823Y-64373D01*
X10379Y-63929D01*
X10586Y-63429D01*
X14524D01*
Y-63391D01*
X18371D01*
X18761Y-63313D01*
X18890Y-63260D01*
X19221Y-63039D01*
X19442Y-62708D01*
X19520Y-62318D01*
Y-47163D01*
X19442Y-46773D01*
X19221Y-46442D01*
X19146Y-46367D01*
X18815Y-46145D01*
X18425Y-46068D01*
X14524D01*
Y-46058D01*
X13847D01*
X13555Y-46000D01*
X13455D01*
X13356Y-45980D01*
X9500D01*
Y-45558D01*
X9058D01*
X9000Y-45500D01*
X8601Y-45899D01*
Y-46058D01*
X8587D01*
Y-46566D01*
X8558Y-46610D01*
X8480Y-47000D01*
Y-50500D01*
X8558Y-50890D01*
X8587Y-50934D01*
Y-51601D01*
X8601D01*
Y-52584D01*
X13344D01*
X13495Y-52735D01*
Y-57102D01*
X13442Y-57155D01*
X13211Y-57201D01*
X12715Y-57533D01*
X12361Y-57886D01*
X8587D01*
Y-58012D01*
X8297Y-58015D01*
X8108Y-58054D01*
X2054D01*
X2000Y-58000D01*
Y-56107D01*
X2115D01*
X2993Y-55991D01*
X3811Y-55652D01*
X4010Y-55500D01*
X5500D01*
X5000Y-55000D01*
Y-54479D01*
X5052Y-54411D01*
X5391Y-53593D01*
X5507Y-52715D01*
X5391Y-51838D01*
X5052Y-51020D01*
X5000Y-50952D01*
Y-49000D01*
X2000D01*
X1000Y-48000D01*
Y-32520D01*
X2315D01*
X2413Y-32500D01*
X8256D01*
X8301Y-32519D01*
D02*
G37*
G36*
X153531Y-61011D02*
X159271D01*
Y-60802D01*
X159687Y-60524D01*
X160066Y-60681D01*
X160934D01*
X161735Y-60349D01*
X162010Y-60075D01*
X162086Y-60024D01*
X162105Y-60005D01*
X162495D01*
X162532Y-60013D01*
X162572Y-60005D01*
X163092D01*
X163309Y-60330D01*
X168500Y-65522D01*
Y-69500D01*
X165890D01*
Y-65293D01*
X165867Y-65271D01*
X165717Y-65151D01*
X165561Y-65045D01*
X165399Y-64953D01*
X165231Y-64875D01*
X165058Y-64811D01*
X164878Y-64762D01*
X164693Y-64727D01*
X164501Y-64705D01*
X164305Y-64698D01*
X161528D01*
Y-68171D01*
X161520Y-68209D01*
X161528Y-68247D01*
Y-68434D01*
X161317Y-68683D01*
X160501Y-69500D01*
X159271D01*
Y-67493D01*
X153531D01*
Y-69500D01*
X148500D01*
Y-74978D01*
X148346Y-75088D01*
X148346D01*
Y-79450D01*
X153522D01*
Y-81910D01*
X152980Y-82453D01*
X138354Y-82499D01*
X138000Y-82146D01*
Y-79450D01*
X143654D01*
Y-75088D01*
X138000D01*
Y-59500D01*
X153531D01*
Y-61011D01*
D02*
G37*
G36*
X164541Y-65736D02*
X164647Y-65756D01*
X164746Y-65783D01*
X164841Y-65818D01*
X164871Y-65832D01*
Y-67960D01*
X164500Y-75000D01*
X161000D01*
Y-86000D01*
X149500D01*
X149462Y-86038D01*
X149000Y-85847D01*
Y-83485D01*
X152983Y-83472D01*
X153175Y-83433D01*
X153370Y-83395D01*
X153371Y-83394D01*
X153373Y-83393D01*
X153537Y-83283D01*
X153675Y-83190D01*
X154283D01*
Y-82571D01*
X154464Y-82300D01*
X154542Y-81910D01*
Y-79914D01*
X154958Y-79636D01*
X155066Y-79681D01*
X155934D01*
X156736Y-79349D01*
X157349Y-78736D01*
X157681Y-77934D01*
Y-77066D01*
X157349Y-76265D01*
X156736Y-75651D01*
X155934Y-75319D01*
X155066D01*
X154699Y-75471D01*
X154283Y-75193D01*
Y-75088D01*
X154000D01*
Y-70389D01*
X154252Y-70221D01*
X154473Y-69890D01*
X154550Y-69500D01*
Y-68512D01*
X158251D01*
Y-69500D01*
X158329Y-69890D01*
X158550Y-70221D01*
X158881Y-70442D01*
X159271Y-70520D01*
X160501D01*
X160891Y-70442D01*
X161221Y-70221D01*
X162038Y-69404D01*
X162062Y-69369D01*
X162095Y-69342D01*
X162125Y-69307D01*
X162306Y-69093D01*
X162382Y-68955D01*
X162470Y-68824D01*
X162478Y-68782D01*
X162499Y-68745D01*
X162517Y-68589D01*
X162548Y-68434D01*
Y-68247D01*
X162540Y-68209D01*
X162548Y-68171D01*
Y-65728D01*
X164470D01*
X164541Y-65736D01*
D02*
G37*
G36*
X37488Y-70181D02*
X37397Y-70184D01*
X37306Y-70197D01*
X37216Y-70218D01*
X37126Y-70248D01*
X37036Y-70286D01*
X36947Y-70334D01*
X36859Y-70390D01*
X36771Y-70455D01*
X36683Y-70529D01*
X36596Y-70611D01*
X35889Y-69904D01*
X35971Y-69817D01*
X36045Y-69729D01*
X36110Y-69641D01*
X36166Y-69553D01*
X36214Y-69464D01*
X36252Y-69374D01*
X36282Y-69284D01*
X36303Y-69194D01*
X36316Y-69103D01*
X36319Y-69012D01*
X37488Y-70181D01*
D02*
G37*
G36*
X7304Y-76050D02*
X7334Y-76063D01*
X7384Y-76075D01*
X7454Y-76085D01*
X7654Y-76101D01*
X8294Y-76113D01*
Y-77113D01*
X8104Y-77114D01*
X7334Y-77163D01*
X7304Y-77177D01*
X7294Y-77192D01*
Y-76035D01*
X7304Y-76050D01*
D02*
G37*
G36*
X31806Y-76691D02*
X31821Y-76863D01*
X31846Y-77015D01*
X31881Y-77146D01*
X31926Y-77258D01*
X31981Y-77349D01*
X32046Y-77419D01*
X32121Y-77470D01*
X32206Y-77500D01*
X32301Y-77510D01*
X30301D01*
X30396Y-77500D01*
X30481Y-77470D01*
X30556Y-77419D01*
X30621Y-77349D01*
X30676Y-77258D01*
X30721Y-77146D01*
X30756Y-77015D01*
X30781Y-76863D01*
X30796Y-76691D01*
X30801Y-76499D01*
X31801D01*
X31806Y-76691D01*
D02*
G37*
G36*
X111421Y-76095D02*
X111451Y-76180D01*
X111501Y-76255D01*
X111571Y-76320D01*
X111661Y-76375D01*
X111771Y-76420D01*
X111901Y-76455D01*
X112027Y-76476D01*
X112064Y-76471D01*
X112166Y-76448D01*
X112263Y-76418D01*
X112353Y-76382D01*
X112438Y-76340D01*
X112517Y-76291D01*
X112590Y-76235D01*
X112656Y-76173D01*
Y-77827D01*
X112590Y-77765D01*
X112517Y-77709D01*
X112438Y-77660D01*
X112353Y-77618D01*
X112263Y-77582D01*
X112166Y-77552D01*
X112064Y-77529D01*
X112027Y-77524D01*
X111901Y-77545D01*
X111771Y-77580D01*
X111661Y-77625D01*
X111571Y-77680D01*
X111501Y-77745D01*
X111451Y-77820D01*
X111421Y-77905D01*
X111411Y-78000D01*
Y-76000D01*
X111421Y-76095D01*
D02*
G37*
G36*
X126626Y-78072D02*
X126616Y-77977D01*
X126586Y-77892D01*
X126536Y-77817D01*
X126466Y-77752D01*
X126376Y-77697D01*
X126266Y-77652D01*
X126136Y-77617D01*
X125986Y-77592D01*
X125816Y-77577D01*
X125626Y-77572D01*
Y-76572D01*
X125816Y-76567D01*
X125986Y-76552D01*
X126136Y-76527D01*
X126266Y-76492D01*
X126376Y-76447D01*
X126466Y-76392D01*
X126536Y-76327D01*
X126586Y-76252D01*
X126616Y-76167D01*
X126626Y-76072D01*
Y-78072D01*
D02*
G37*
G36*
X138728Y-78129D02*
X138718Y-78034D01*
X138689Y-77949D01*
X138638Y-77874D01*
X138568Y-77809D01*
X138479Y-77754D01*
X138368Y-77709D01*
X138239Y-77674D01*
X138089Y-77649D01*
X137918Y-77634D01*
X137729Y-77629D01*
Y-76629D01*
X137918Y-76624D01*
X138089Y-76609D01*
X138239Y-76584D01*
X138368Y-76549D01*
X138479Y-76504D01*
X138568Y-76449D01*
X138638Y-76384D01*
X138689Y-76309D01*
X138718Y-76224D01*
X138728Y-76129D01*
Y-78129D01*
D02*
G37*
G36*
X135064Y-76224D02*
X135095Y-76309D01*
X135145Y-76384D01*
X135216Y-76449D01*
X135307Y-76504D01*
X135418Y-76549D01*
X135550Y-76584D01*
X135702Y-76609D01*
X135874Y-76624D01*
X136066Y-76629D01*
Y-77629D01*
X135874Y-77634D01*
X135702Y-77649D01*
X135550Y-77674D01*
X135418Y-77709D01*
X135307Y-77754D01*
X135216Y-77809D01*
X135145Y-77874D01*
X135095Y-77949D01*
X135064Y-78034D01*
X135054Y-78129D01*
Y-76129D01*
X135064Y-76224D01*
D02*
G37*
G36*
X153270Y-76480D02*
X153300Y-76565D01*
X153350Y-76639D01*
X153421Y-76705D01*
X153513Y-76759D01*
X153624Y-76805D01*
X153755Y-76840D01*
X153907Y-76864D01*
X153995Y-76872D01*
X154127Y-76859D01*
X154230Y-76838D01*
X154329Y-76812D01*
X154422Y-76780D01*
X154510Y-76743D01*
X154592Y-76699D01*
X154670Y-76650D01*
X154741Y-76595D01*
X154580Y-78240D01*
X154519Y-78173D01*
X154452Y-78112D01*
X154378Y-78059D01*
X154297Y-78013D01*
X154210Y-77974D01*
X154116Y-77942D01*
X154016Y-77917D01*
X153931Y-77903D01*
X153907Y-77904D01*
X153755Y-77930D01*
X153624Y-77965D01*
X153513Y-78009D01*
X153421Y-78065D01*
X153350Y-78130D01*
X153300Y-78205D01*
X153270Y-78290D01*
X153260Y-78385D01*
Y-76385D01*
X153270Y-76480D01*
D02*
G37*
G36*
X9903Y-76926D02*
X10271Y-77237D01*
X10433Y-77350D01*
X10582Y-77435D01*
X10716Y-77492D01*
X10836Y-77520D01*
X10942D01*
X11034Y-77492D01*
X11112Y-77435D01*
X9698Y-78850D01*
X9754Y-78772D01*
X9783Y-78680D01*
Y-78574D01*
X9754Y-78453D01*
X9698Y-78319D01*
X9613Y-78171D01*
X9500Y-78008D01*
X9358Y-77831D01*
X8991Y-77435D01*
X9698Y-76728D01*
X9903Y-76926D01*
D02*
G37*
G36*
X102970Y-78930D02*
X102960Y-78933D01*
X102930Y-78935D01*
X102480Y-78941D01*
X101970Y-78942D01*
Y-77942D01*
X102162Y-77937D01*
X102333Y-77922D01*
X102484Y-77897D01*
X102616Y-77862D01*
X102727Y-77817D01*
X102818Y-77762D01*
X102889Y-77697D01*
X102940Y-77622D01*
X102971Y-77537D01*
X102982Y-77442D01*
X102970Y-78930D01*
D02*
G37*
G36*
X94468Y-77690D02*
X94498Y-77743D01*
X94548Y-77790D01*
X94618Y-77830D01*
X94708Y-77864D01*
X94818Y-77893D01*
X94948Y-77914D01*
X95098Y-77930D01*
X95458Y-77942D01*
Y-78942D01*
X95267Y-78947D01*
X95095Y-78962D01*
X94944Y-78987D01*
X94812Y-79022D01*
X94701Y-79067D01*
X94610Y-79122D01*
X94539Y-79187D01*
X94488Y-79262D01*
X94457Y-79347D01*
X94446Y-79442D01*
X94458Y-77631D01*
X94468Y-77690D01*
D02*
G37*
G36*
X57500Y-80733D02*
X53870D01*
X52003Y-80386D01*
X51865Y-80386D01*
X51533Y-80386D01*
X50003Y-80386D01*
X46834D01*
X44900Y-80227D01*
X44830Y-80227D01*
X44411Y-80227D01*
X42900Y-80227D01*
X38963D01*
Y-83000D01*
X22500D01*
Y-74500D01*
X27872D01*
X28303Y-74659D01*
X28333Y-76486D01*
X28333D01*
Y-80849D01*
X34270D01*
Y-76486D01*
X34270Y-76486D01*
X34302Y-74500D01*
X57500D01*
Y-80733D01*
D02*
G37*
G36*
X73235Y-80890D02*
X73224Y-80795D01*
X73194Y-80710D01*
X73144Y-80635D01*
X73073Y-80570D01*
X72982Y-80515D01*
X72870Y-80470D01*
X72739Y-80435D01*
X72587Y-80410D01*
X72415Y-80395D01*
X72223Y-80390D01*
Y-79390D01*
X72415Y-79385D01*
X72587Y-79370D01*
X72739Y-79345D01*
X72870Y-79310D01*
X72982Y-79265D01*
X73073Y-79210D01*
X73144Y-79145D01*
X73194Y-79070D01*
X73224Y-78985D01*
X73235Y-78890D01*
Y-80890D01*
D02*
G37*
G36*
X45928Y-81396D02*
X45998Y-81392D01*
X46066Y-81405D01*
X51412D01*
X51412D01*
X51412D01*
X51866Y-81405D01*
X52998Y-81716D01*
X53134Y-81726D01*
X53268Y-81753D01*
X57500D01*
Y-85500D01*
X44900D01*
Y-83967D01*
X40000D01*
Y-81246D01*
X44132D01*
D01*
X44132D01*
X44830Y-81246D01*
X45928Y-81396D01*
D02*
G37*
G36*
X103931Y-83371D02*
X104275Y-83392D01*
X104209Y-83455D01*
X104150Y-83524D01*
X104098Y-83600D01*
X104053Y-83683D01*
X104015Y-83771D01*
X103989Y-83851D01*
X104009Y-83925D01*
X104054Y-84035D01*
X104109Y-84125D01*
X104174Y-84195D01*
X104249Y-84245D01*
X104334Y-84275D01*
X104429Y-84285D01*
X103930D01*
X103929Y-84309D01*
X103569Y-84285D01*
X102429D01*
X102524Y-84275D01*
X102609Y-84245D01*
X102684Y-84195D01*
X102749Y-84125D01*
X102804Y-84035D01*
X102849Y-83925D01*
X102882Y-83804D01*
X102880Y-83796D01*
X102853Y-83698D01*
X102819Y-83606D01*
X102780Y-83519D01*
X102734Y-83438D01*
X102682Y-83363D01*
X102624Y-83292D01*
X102928Y-83311D01*
X102929Y-83285D01*
X103929D01*
X103931Y-83371D01*
D02*
G37*
G36*
X66500Y-83716D02*
X66363Y-83921D01*
X66286Y-84312D01*
Y-85500D01*
X59500D01*
Y-74500D01*
X66500D01*
Y-83716D01*
D02*
G37*
G36*
X138728Y-85918D02*
X138718Y-85830D01*
X138689Y-85751D01*
X138638Y-85682D01*
X138568Y-85622D01*
X138479Y-85570D01*
X138368Y-85529D01*
X138239Y-85496D01*
X138089Y-85473D01*
X137918Y-85459D01*
X137729Y-85454D01*
Y-84454D01*
X137918Y-84449D01*
X138089Y-84434D01*
X138239Y-84409D01*
X138368Y-84374D01*
X138479Y-84329D01*
X138568Y-84274D01*
X138638Y-84209D01*
X138689Y-84134D01*
X138718Y-84049D01*
X138728Y-83954D01*
Y-85918D01*
D02*
G37*
G36*
X125820Y-84369D02*
X125850Y-84387D01*
X125900Y-84403D01*
X125970Y-84416D01*
X126060Y-84428D01*
X126300Y-84445D01*
X126810Y-84454D01*
Y-85454D01*
X126618Y-85459D01*
X126447Y-85474D01*
X126295Y-85499D01*
X126164Y-85534D01*
X126053Y-85579D01*
X125962Y-85634D01*
X125891Y-85699D01*
X125840Y-85774D01*
X125809Y-85859D01*
X125798Y-85954D01*
X125810Y-84348D01*
X125820Y-84369D01*
D02*
G37*
G36*
X114773Y-84375D02*
X114803Y-84455D01*
X114853Y-84526D01*
X114923Y-84587D01*
X115013Y-84639D01*
X115123Y-84682D01*
X115253Y-84715D01*
X115403Y-84738D01*
X115573Y-84753D01*
X115763Y-84757D01*
Y-85757D01*
X115573Y-85762D01*
X115403Y-85776D01*
X115253Y-85800D01*
X115123Y-85833D01*
X115013Y-85875D01*
X114923Y-85927D01*
X114853Y-85989D01*
X114803Y-86060D01*
X114773Y-86140D01*
X114763Y-86230D01*
Y-84285D01*
X114773Y-84375D01*
D02*
G37*
G36*
X117369Y-86257D02*
X117359Y-86162D01*
X117329Y-86077D01*
X117279Y-86002D01*
X117209Y-85937D01*
X117119Y-85882D01*
X117009Y-85837D01*
X116879Y-85802D01*
X116729Y-85777D01*
X116559Y-85762D01*
X116369Y-85757D01*
Y-84757D01*
X116559Y-84753D01*
X116879Y-84721D01*
X117009Y-84692D01*
X117119Y-84655D01*
X117209Y-84610D01*
X117279Y-84557D01*
X117329Y-84496D01*
X117359Y-84426D01*
X117369Y-84348D01*
Y-86257D01*
D02*
G37*
G36*
X33000Y-88519D02*
X22354Y-88526D01*
X22000Y-88172D01*
Y-84760D01*
X33000D01*
Y-88519D01*
D02*
G37*
%LPC*%
G36*
X160744Y1885D02*
X160744Y1850D01*
Y1472D01*
X160916D01*
X160744Y1885D01*
D02*
G37*
G36*
X165890Y-64698D02*
X165719D01*
X165890Y-65113D01*
Y-64698D01*
D02*
G37*
%LPD*%
D14*
X75565Y6412D02*
Y15238D01*
X75562Y6409D02*
X75565Y6412D01*
X74325Y2358D02*
Y2555D01*
X73086Y3728D02*
X73151D01*
X72500Y4314D02*
Y10841D01*
X70623Y12718D02*
X72500Y10841D01*
X73151Y3728D02*
X74325Y2555D01*
X72500Y4314D02*
X73086Y3728D01*
X76785Y16458D02*
X78352D01*
X75565Y15238D02*
X76785Y16458D01*
X54426Y-6500D02*
Y-4614D01*
X43761Y-6016D02*
X45000Y-7256D01*
Y-11000D02*
Y-7256D01*
X43761Y-6016D02*
X44461Y-5316D01*
X124149Y-86207D02*
Y-86128D01*
X125322Y-84954D01*
X140480D02*
X140685Y-84749D01*
X125322Y-84954D02*
X140480D01*
X140545Y-77129D02*
X140685Y-77269D01*
X133405Y-77129D02*
X140545D01*
X31301Y-75199D02*
X37500Y-69000D01*
X78352Y16458D02*
X79033Y17139D01*
X31301Y-78668D02*
Y-75199D01*
X11753Y-60658D02*
X16842D01*
X24198Y-81187D02*
X24371Y-81361D01*
X36572Y-78668D02*
X44240Y-71000D01*
X24371Y-81361D02*
X33879D01*
X36572Y-78668D01*
X44461Y-5119D02*
X45732Y-3848D01*
X44461Y-5316D02*
Y-5119D01*
X45732Y-3848D02*
X45929D01*
X58000Y-1040D02*
Y-1000D01*
X54426Y-4614D02*
X58000Y-1040D01*
X50306Y-37792D02*
Y-25724D01*
X159701Y13275D02*
X160244Y12731D01*
X164631Y8500D02*
X165369D01*
X166698Y9830D02*
X168347D01*
X163734Y9398D02*
X164631Y8500D01*
X165369D02*
X166698Y9830D01*
X160244Y10708D02*
X161555Y9398D01*
X163734D01*
X37244Y17914D02*
X41861Y22532D01*
X155468D01*
X162423Y15577D01*
X44240Y-71000D02*
X91902D01*
X121402Y-41500D01*
X109749Y-77269D02*
Y-76875D01*
X103429Y-82571D02*
X103761Y-82239D01*
X103429Y-85186D02*
Y-82571D01*
X103358Y-85257D02*
X103429Y-85186D01*
X68456Y13406D02*
X69145Y12718D01*
X70623D01*
X69191Y17139D02*
X71871Y19819D01*
X72239Y19865D02*
X72285Y19820D01*
X71871Y19819D02*
X72239D01*
X72285Y19820D02*
X85226D01*
X86137Y18909D01*
X151315Y-84749D02*
X151996Y-84068D01*
X161106Y-76489D02*
Y-71128D01*
X153527Y-84068D02*
X161106Y-76489D01*
X151996Y-84068D02*
X153527D01*
X171272Y-44966D02*
X171500Y-44738D01*
Y-40500D01*
X159880Y-19129D02*
X163358D01*
X156401D02*
X159880D01*
X156500Y-53319D02*
Y-49500D01*
X27809Y-86148D02*
X27837Y-86119D01*
X109822Y-77000D02*
X113500D01*
X35884Y10010D02*
X40490D01*
X40500Y10000D01*
X35874Y10020D02*
X35884Y10010D01*
X48239Y15558D02*
X48500Y15819D01*
X47761Y15558D02*
X48239D01*
X45815Y13612D02*
X47761Y15558D01*
X45126Y13612D02*
X45815D01*
X155385Y-77385D02*
X155500Y-77500D01*
X151430Y-77385D02*
X155385D01*
X151315Y-77269D02*
X151430Y-77385D01*
X137003Y9837D02*
X137083Y9757D01*
X136559Y10281D02*
X137003Y9837D01*
X137378Y-57476D02*
X141776Y-61874D01*
X156401Y-58338D02*
X156563Y-58500D01*
X160500D01*
X160338Y-58461D02*
X163028D01*
X126424Y-3047D02*
X127681Y-4304D01*
X156471Y-30956D02*
Y-24444D01*
X6504Y1168D02*
X15668D01*
X150500Y-36500D02*
X156172D01*
X156401Y-36271D01*
X162058D01*
X141776Y-61874D02*
X146181Y-66280D01*
Y-77406D02*
Y-66280D01*
Y-77406D02*
X149103Y-80328D01*
X150634D02*
X151315Y-81009D01*
X149103Y-80328D02*
X150634D01*
X157363Y-71128D02*
X161106D01*
X156401Y-70166D02*
X157363Y-71128D01*
X161106Y-71058D02*
X163709Y-68454D01*
Y-66879D01*
X166768Y-66986D02*
Y-65455D01*
X161907Y-64198D02*
X165511D01*
X166768Y-65455D01*
X163187Y-61874D02*
X165511Y-64198D01*
X156401Y-65048D02*
X161057D01*
X161907Y-64198D01*
X97930Y-18029D02*
Y4228D01*
X14926Y-84215D02*
X17954Y-81187D01*
X6500Y-42200D02*
Y-36000D01*
X24198Y-86502D02*
X24609Y-86091D01*
X27837Y-86119D02*
X31273D01*
X24609Y-86091D02*
X27751D01*
X31273Y-86119D02*
X31301Y-86148D01*
X35874Y17205D02*
X36563D01*
X37244Y17886D02*
Y17914D01*
X36563Y17205D02*
X37244Y17886D01*
X162423Y13112D02*
Y15577D01*
X141776Y-61874D02*
X163187D01*
X166768Y-66986D02*
X167449Y-67667D01*
X156500Y-53319D02*
X156741Y-53560D01*
X149297Y4549D02*
X149494D01*
X157414Y12117D02*
Y13003D01*
X157126Y11830D02*
X157414Y12117D01*
X149494Y4549D02*
X156775Y11830D01*
X157126D01*
X161106Y-71128D02*
Y-71058D01*
X110614Y-83893D02*
X117434Y-77072D01*
X128287D01*
X105791Y-6626D02*
X109884D01*
X101698D02*
X105791D01*
X17273Y-81187D02*
X17954D01*
X18651Y-73163D02*
Y-65838D01*
X16687Y-80601D02*
Y-75128D01*
Y-80601D02*
X17273Y-81187D01*
X16687Y-75128D02*
X18651Y-73163D01*
X64252Y-79890D02*
X75572D01*
X61059Y-76697D02*
X64252Y-79890D01*
X92108Y-79891D02*
X93557Y-78442D01*
X103458D01*
X158721Y16278D02*
X159701Y15297D01*
Y13275D02*
Y15297D01*
X149356Y16278D02*
X158721D01*
X160244Y10708D02*
Y12731D01*
X153487Y2780D02*
Y4800D01*
X150569Y505D02*
X151213D01*
X149297Y-766D02*
X150569Y505D01*
X151213D02*
X153487Y2780D01*
X149101Y-766D02*
X149297D01*
X162260Y4416D02*
X162532Y4145D01*
X162260Y4416D02*
Y6439D01*
X161381Y7318D02*
X162260Y6439D01*
X156005Y7318D02*
X161381D01*
X153487Y4800D02*
X156005Y7318D01*
X147291Y-2576D02*
X149101Y-766D01*
X143315Y-2576D02*
X147291D01*
X142142Y-3749D02*
X143315Y-2576D01*
X150315Y12119D02*
X157126D01*
X149356Y11160D02*
X150315Y12119D01*
X137083Y9757D02*
X139835D01*
X168229Y-4843D02*
X168591Y-4480D01*
Y-1015D01*
X106138Y-25724D02*
X110075D01*
X105626D02*
X106138D01*
X97930Y-18029D02*
X105626Y-25724D01*
X124310Y-2366D02*
X124992Y-3047D01*
X126424D01*
X127681Y-35221D02*
Y-4304D01*
X121402Y-41500D02*
X127681Y-35221D01*
X171821Y-18831D02*
Y1323D01*
X169438Y3423D02*
X170710Y2152D01*
X170993D01*
X171821Y1323D01*
X169241Y3423D02*
X169438D01*
X171181Y-19471D02*
X171821Y-18831D01*
X138458Y-24444D02*
X156401D01*
X131412Y9560D02*
X131646Y9795D01*
X124880Y9560D02*
X131412D01*
X131787Y16890D02*
Y16940D01*
X130613Y15717D02*
X131787Y16890D01*
X124880Y14678D02*
X125919Y15717D01*
X123904Y13505D02*
X124979Y14580D01*
X125919Y15717D02*
X130613D01*
X126808Y-1692D02*
X131646Y3146D01*
Y9795D01*
X121510Y11895D02*
X123120Y13505D01*
X121510Y3952D02*
Y11895D01*
X123120Y13505D02*
X123904D01*
X122940Y2055D02*
X123621Y1374D01*
X122757Y2641D02*
X122940Y2457D01*
X123621Y1374D02*
X124310D01*
X122940Y2055D02*
Y2457D01*
X122757Y2641D02*
Y2705D01*
X121510Y3952D02*
X122757Y2705D01*
X124985Y-1692D02*
X126808D01*
X124310Y-2366D02*
X124985Y-1692D01*
X137000Y5468D02*
Y9613D01*
X136559Y10281D02*
Y16594D01*
X136905Y16940D01*
X120730Y-6106D02*
X123301D01*
X120757Y-6080D02*
Y1877D01*
X120730Y-6106D02*
X120757Y-6080D01*
X117977Y-6106D02*
X120730D01*
X117502Y5131D02*
X120757Y1877D01*
X117502Y5131D02*
Y5328D01*
X101670Y4647D02*
X102351Y5328D01*
X101670Y4228D02*
Y4647D01*
X102351Y5328D02*
X112384D01*
X167988Y-9917D02*
X168229Y-10158D01*
X161417Y-9917D02*
X167988D01*
X161322Y-9822D02*
X161417Y-9917D01*
X156272Y-19000D02*
X156401Y-19129D01*
X136532Y2080D02*
Y3991D01*
X135826Y1374D02*
X136532Y2080D01*
X135137Y1374D02*
X135826D01*
X142177D01*
X68207Y2358D02*
Y9462D01*
X68404Y9658D01*
X156105Y-2663D02*
Y-2522D01*
Y-2719D02*
Y-2663D01*
Y-2719D02*
X156204Y-2817D01*
Y-9822D02*
Y-2817D01*
X156204Y-9822D02*
X156204Y-9822D01*
X157414Y-1214D02*
Y4145D01*
X156105Y-2522D02*
X157414Y-1214D01*
X161421Y-2663D02*
Y674D01*
X161123Y972D02*
X161421Y674D01*
X161123Y972D02*
X166790D01*
X169241Y3423D01*
X168347Y9830D02*
X169438Y8738D01*
X68396Y13406D02*
X68404Y13399D01*
X45806Y2744D02*
X45929Y2867D01*
X111Y-7580D02*
Y-3631D01*
X-80Y-24176D02*
Y-11618D01*
X4558Y-60714D02*
X6525D01*
X3840D02*
X4254Y-60299D01*
X11556Y-60658D02*
X11753D01*
X41931Y-82408D02*
X41997Y-82473D01*
X48350D01*
X49860Y-83983D01*
X19859Y-64630D02*
X98044D01*
X18651Y-65838D02*
X19859Y-64630D01*
X23256Y-61234D01*
X109884Y-6626D02*
X110053Y-6795D01*
X93911Y13791D02*
X97525Y10178D01*
X86137Y13791D02*
X93911D01*
X135818Y-5425D02*
X140310D01*
X141986Y-3749D01*
X142183D01*
X135137Y-6106D02*
X135818Y-5425D01*
X142177Y1374D02*
X142183Y1369D01*
X0Y-11538D02*
Y-7500D01*
X-80Y-11618D02*
X0Y-11538D01*
X11753Y-48830D02*
X17330D01*
X11556D02*
X11753D01*
X67961Y2603D02*
X68207Y2358D01*
X57847Y2603D02*
X67961D01*
X5565Y-43515D02*
X11556D01*
X4267D02*
X5565D01*
X5681Y-43400D01*
X4254Y-60299D02*
X4747Y-59806D01*
X14047Y-70442D02*
X18651Y-65838D01*
X11556Y-84215D02*
X14926D01*
X20219Y-56612D02*
X23256Y-59648D01*
X11556Y-72387D02*
X11753D01*
X13698Y-70442D01*
X14047D01*
X23256Y-61234D02*
Y-59648D01*
X13796Y-45558D02*
X19058D01*
X20219Y-56612D02*
Y-46719D01*
X19058Y-45558D02*
X20219Y-46719D01*
X123301Y-6106D02*
X123806Y-5602D01*
X85745Y13399D02*
X86137Y13791D01*
X79033Y13399D02*
X85745D01*
X93509Y3547D02*
X94190Y4228D01*
X11285Y-66998D02*
X11556Y-67269D01*
X162423Y13112D02*
X162532Y13003D01*
X94190Y-6598D02*
Y-6307D01*
X93509Y-5626D02*
X94190Y-6307D01*
X86681Y-5626D02*
X93509D01*
X85500Y-4445D02*
X86681Y-5626D01*
X93509Y3547D02*
X94190Y4228D01*
X87146Y3500D02*
X93509D01*
X85905Y2260D02*
X87146Y3500D01*
X93509Y3547D02*
X94190Y4228D01*
X93509Y3500D02*
Y3547D01*
X94190Y4181D02*
Y4228D01*
X93509Y3500D02*
X94190Y4181D01*
X109466Y-893D02*
X110053Y-1480D01*
X101301Y-893D02*
X109466D01*
X98206Y2201D02*
X101301Y-893D01*
X97525Y4634D02*
Y10178D01*
Y4634D02*
X97930Y4228D01*
X110053Y-1480D02*
X110640Y-893D01*
X116701D01*
X117288Y-1480D01*
Y-6795D02*
X117977Y-6106D01*
X123301D02*
X124310D01*
X123806Y-5602D02*
X124310Y-6106D01*
X159880Y-19880D02*
Y-19129D01*
X170508Y-66986D02*
X171189Y-67667D01*
X170508Y-66986D02*
Y-65367D01*
X164390Y-59249D02*
X170508Y-65367D01*
X164390Y-59249D02*
Y-57718D01*
X163709Y-57037D02*
X164390Y-57718D01*
X10147Y-83003D02*
X11359Y-84215D01*
X4838Y-83003D02*
X10147D01*
X11359Y-84215D02*
X11556D01*
X4747Y-76613D02*
X8876D01*
X11359Y-79097D01*
X11556D01*
X4748Y-82912D02*
X4838Y-83003D01*
X8953Y-64666D02*
X11285Y-66998D01*
X4747Y-64802D02*
X5601D01*
X5738Y-64666D01*
X11014Y-67269D02*
X11556D01*
X10743Y-67540D02*
X11014Y-67269D01*
X5738Y-64666D02*
X8953D01*
X37645Y2080D02*
X38309Y2744D01*
X45806D01*
X61059Y-76880D02*
Y-76500D01*
Y-83603D02*
Y-76880D01*
X55561Y-83983D02*
X55941Y-83603D01*
X49860Y-83983D02*
X55561D01*
X55941Y-76669D02*
Y-76500D01*
X54768Y-77842D02*
X55941Y-76669D01*
X49034Y-77842D02*
X54768D01*
X5681Y-43400D02*
Y-42947D01*
X5842Y-42785D02*
X5914D01*
X6500Y-42200D01*
X5681Y-42947D02*
X5842Y-42785D01*
X16376Y2875D02*
X17648Y4147D01*
X16376Y1876D02*
Y2875D01*
X15668Y1168D02*
X16376Y1876D01*
X5918Y1754D02*
X6504Y1168D01*
X5918Y1754D02*
Y11346D01*
X6408Y-572D02*
X10257D01*
X11036Y7868D02*
Y11346D01*
X15770Y11346D02*
X17246D01*
X14416Y11654D02*
X15770D01*
X10938Y3849D02*
Y7868D01*
X14000Y11654D02*
X14416D01*
X10938Y7868D02*
X14416Y11346D01*
X11344Y11654D02*
X13830D01*
X14000D01*
X22963Y14797D02*
Y18484D01*
X22963Y18484D02*
X22963Y18484D01*
Y14797D02*
X22963Y14796D01*
Y11445D02*
Y14796D01*
X22864Y11346D02*
X22963Y11445D01*
X17648Y15958D02*
Y18484D01*
X17648Y18484D02*
X17648Y18484D01*
X17246Y15557D02*
X17648Y15958D01*
X17246Y12642D02*
Y15557D01*
X11036Y11346D02*
X11344Y11654D01*
X15770D02*
X16758Y12642D01*
X11036Y11346D02*
X11036Y11346D01*
X5918Y11346D02*
X5918Y11346D01*
X22864Y4245D02*
Y11346D01*
Y4245D02*
X22963Y4147D01*
X17246Y11846D02*
Y12642D01*
Y11846D02*
X17746Y11346D01*
X22864Y4048D02*
X22963Y4147D01*
X22864Y4040D02*
Y4048D01*
Y4040D02*
X25234Y1670D01*
Y-3161D02*
Y1670D01*
Y-3161D02*
X26801Y-4728D01*
X28081D01*
X18322Y-3631D02*
X19419Y-4728D01*
X10938Y-3631D02*
X18322D01*
X37645Y-4810D02*
X39527Y-6692D01*
X39575D01*
X-2929Y-45120D02*
X-1048Y-47002D01*
X10257Y790D02*
X10938Y109D01*
X11753Y-43515D02*
X13796Y-45558D01*
X11556Y-43515D02*
X11753D01*
X3960Y-43822D02*
X4267Y-43515D01*
X3960Y-45120D02*
X5842Y-47002D01*
X3960Y-45120D02*
Y-43822D01*
X11556Y-43515D02*
X11556Y-43515D01*
X14939Y-52016D02*
Y-52016D01*
X11753Y-48830D02*
X14939Y-52016D01*
Y-52016D02*
X15024Y-52101D01*
X11753Y-60658D02*
X13796Y-58614D01*
X14146D01*
X15024Y-57736D01*
Y-52101D01*
X5842Y-49826D02*
X11359Y-55343D01*
X5842Y-49826D02*
Y-47002D01*
X11359Y-55343D02*
X11556D01*
X8087Y-55843D02*
X11056D01*
X11556Y-55343D01*
X7683Y-56247D02*
X8087Y-55843D01*
X4838Y-56247D02*
X7683D01*
X4747Y-56337D02*
X4838Y-56247D01*
X4747Y-57715D02*
Y-56337D01*
X3840Y-60714D02*
X4558D01*
X4748Y-60904D01*
X5796Y-12040D02*
X5822Y-12014D01*
X36572Y-78668D02*
X41931D01*
X140685Y-81009D02*
X151315D01*
X156471Y-24444D02*
X166996D01*
X156401D02*
X156471D01*
X166996D02*
X171181Y-20259D01*
X162058Y-36271D02*
X167441Y-30889D01*
Y-30101D01*
X156401Y-30956D02*
X156471D01*
X37645Y-4810D02*
X39527Y-6692D01*
X37645Y-4810D02*
X37693D01*
X39575Y-6692D01*
X4748Y-82912D02*
Y-81731D01*
X171189Y-57037D02*
Y-50167D01*
X171272Y-50084D01*
X156741Y-53560D02*
X165503D01*
X163028Y-58461D02*
X163709Y-57780D01*
Y-57037D01*
X166768Y-56356D02*
Y-54825D01*
Y-56356D02*
X167449Y-57037D01*
X165503Y-53560D02*
X166768Y-54825D01*
X103458Y-78442D02*
X104631Y-77269D01*
Y-77072D01*
X41931Y-78668D02*
X48209D01*
X49034Y-77842D01*
X110614Y-84773D02*
Y-83893D01*
X110152Y-85235D02*
X110614Y-84773D01*
X118081Y-85257D02*
X119031Y-86207D01*
X113594Y-85257D02*
X118081D01*
X163358Y-19129D02*
X163701Y-19471D01*
X4747Y-59806D02*
Y-59644D01*
X160244Y1850D02*
Y3873D01*
Y1850D02*
X161123Y972D01*
X159973Y4145D02*
X160244Y3873D01*
X10938Y-3631D02*
X10944Y-3637D01*
Y-24176D02*
Y-3637D01*
X10257Y-572D02*
X10938Y109D01*
X111Y-3631D02*
Y3849D01*
D16*
X85500Y-27500D02*
D03*
Y-16476D02*
D03*
D17*
X-80Y-24176D02*
D03*
X10944D02*
D03*
D18*
X169438Y9157D02*
D03*
Y3842D02*
D03*
X149297Y-766D02*
D03*
Y4549D02*
D03*
X117288Y-6795D02*
D03*
Y-1480D02*
D03*
X156401Y-19129D02*
D03*
Y-24444D02*
D03*
Y-36271D02*
D03*
Y-30956D02*
D03*
X168229Y-4843D02*
D03*
Y-10158D02*
D03*
X110053Y-1480D02*
D03*
Y-6795D02*
D03*
X11556Y-48830D02*
D03*
Y-43515D02*
D03*
Y-60658D02*
D03*
Y-55343D02*
D03*
X49034Y-83157D02*
D03*
Y-77842D02*
D03*
X24198Y-81187D02*
D03*
Y-86502D02*
D03*
D19*
X45929Y4518D02*
D03*
Y-6899D02*
D03*
D20*
X29514Y4147D02*
D03*
X18096D02*
D03*
D21*
X124149Y-86207D02*
D03*
X133405Y-77072D02*
D03*
X131787Y16940D02*
D03*
X136905D02*
D03*
X112384Y5328D02*
D03*
X117502D02*
D03*
X156204Y-9822D02*
D03*
X161322D02*
D03*
X74325Y2358D02*
D03*
X69207D02*
D03*
X128287Y-77072D02*
D03*
X119031Y-86207D02*
D03*
X104631Y-77072D02*
D03*
X109749D02*
D03*
X55941Y-76500D02*
D03*
X61059D02*
D03*
X55941Y-83603D02*
D03*
X61059D02*
D03*
X22864Y11346D02*
D03*
X17746D02*
D03*
X11036D02*
D03*
X5918D02*
D03*
D22*
X140685Y-84749D02*
D03*
Y-77269D02*
D03*
X68404Y17139D02*
D03*
Y13399D02*
D03*
Y9658D02*
D03*
X79033D02*
D03*
Y13399D02*
D03*
Y17139D02*
D03*
X111Y-3631D02*
D03*
Y3849D02*
D03*
X10938D02*
D03*
Y109D02*
D03*
Y-3631D02*
D03*
X140685Y-81009D02*
D03*
X151315Y-77269D02*
D03*
Y-81009D02*
D03*
Y-84749D02*
D03*
X41931Y-86148D02*
D03*
Y-82408D02*
D03*
Y-78668D02*
D03*
X31301D02*
D03*
Y-86148D02*
D03*
D23*
X103358Y-85257D02*
D03*
X113594D02*
D03*
D24*
X106823D02*
D03*
X110130D02*
D03*
D25*
X92108Y-79981D02*
D03*
X75573D02*
D03*
D26*
X4748Y-82912D02*
D03*
X4748Y-81731D02*
D03*
X4748Y-79763D02*
D03*
X4747Y-78542D02*
D03*
X4748Y-60904D02*
D03*
X4747Y-59644D02*
D03*
X4747Y-57715D02*
D03*
Y-56337D02*
D03*
X4747Y-76613D02*
D03*
Y-74643D02*
D03*
Y-72676D02*
D03*
X4747Y-70707D02*
D03*
X4747Y-68739D02*
D03*
X4747Y-66770D02*
D03*
X4747Y-64802D02*
D03*
Y-62833D02*
D03*
D27*
X131688Y9837D02*
D03*
X137003D02*
D03*
X156105Y-2663D02*
D03*
X161421D02*
D03*
X5822Y-12014D02*
D03*
X508D02*
D03*
X17648Y18484D02*
D03*
X22963D02*
D03*
D28*
X124880Y9560D02*
D03*
Y14678D02*
D03*
X149356Y16278D02*
D03*
Y11160D02*
D03*
X142183Y-3749D02*
D03*
Y1369D02*
D03*
X86137Y13791D02*
D03*
Y18909D02*
D03*
X11556Y-72387D02*
D03*
Y-67269D02*
D03*
Y-84215D02*
D03*
Y-79097D02*
D03*
X171272Y-44966D02*
D03*
Y-50084D02*
D03*
X156401Y-53220D02*
D03*
Y-58338D02*
D03*
X156401Y-65048D02*
D03*
Y-70166D02*
D03*
D29*
X157414Y13003D02*
D03*
X159973D02*
D03*
X162532D02*
D03*
Y4145D02*
D03*
X159973D02*
D03*
X157414D02*
D03*
D30*
X85905Y-4630D02*
D03*
Y2260D02*
D03*
D31*
X101670Y-6598D02*
D03*
X94190D02*
D03*
Y4228D02*
D03*
X97930D02*
D03*
X101670D02*
D03*
X171189Y-67667D02*
D03*
X167449D02*
D03*
X163709D02*
D03*
Y-57037D02*
D03*
X167449D02*
D03*
X171189D02*
D03*
X167441Y-30101D02*
D03*
X163701Y-19471D02*
D03*
X171181D02*
D03*
D32*
X135137Y1374D02*
D03*
Y-6106D02*
D03*
X124310D02*
D03*
Y-2366D02*
D03*
Y1374D02*
D03*
X35874Y17205D02*
D03*
Y10020D02*
D03*
X45126Y13612D02*
D03*
D33*
X58166Y4130D02*
D03*
X61906Y-6500D02*
D03*
X54426D02*
D03*
D34*
X37645Y-4810D02*
D03*
Y2080D02*
D03*
D35*
X-2929Y-45120D02*
D03*
X3960D02*
D03*
D36*
X28081Y-4728D02*
D03*
X19419D02*
D03*
D63*
X97423Y-87264D02*
D03*
D64*
X70258D02*
D03*
D65*
X63276Y-25724D02*
Y-24822D01*
Y-26169D02*
Y-26162D01*
Y-25724D01*
X61946Y-27500D02*
X63276Y-26169D01*
X60323Y-29122D02*
X61946Y-27500D01*
X59000D02*
X61946D01*
X58500Y-28000D02*
X59000Y-27500D01*
X50980Y-38465D02*
X60323Y-29122D01*
X63276Y-26162D02*
X64284Y-27169D01*
X85770Y-4630D02*
X85905D01*
X85703Y-4697D02*
X85770Y-4630D01*
X85703Y-16445D02*
Y-4697D01*
X60862Y-29661D02*
Y-29661D01*
X60323Y-29122D02*
X60862Y-29661D01*
X-2929Y-45120D02*
X-2548Y-45502D01*
Y-51006D02*
Y-45502D01*
Y-51006D02*
X-838Y-52715D01*
X541D01*
X46598Y-41500D02*
X50306Y-37792D01*
D66*
X61946Y-27500D02*
X85500D01*
D67*
X45000Y2000D02*
X45831D01*
X57237Y13406D01*
X68396D01*
D68*
X4254Y-60299D02*
X4831D01*
X2029Y-79166D02*
X6238D01*
X688Y-61621D02*
X2010Y-60299D01*
X4254D01*
X79033Y9658D02*
X79821D01*
X80002Y7908D02*
Y9477D01*
X84248Y3327D02*
Y3662D01*
X79821Y9658D02*
X80002Y9477D01*
Y7908D02*
X84248Y3662D01*
Y3327D02*
X85315Y2260D01*
X85905D01*
X688Y-77825D02*
Y-61621D01*
Y-77825D02*
X2029Y-79166D01*
D69*
X88368Y-85099D02*
D03*
X79313D02*
D03*
X172500Y-83500D02*
D03*
Y18000D02*
D03*
X-15000Y-42500D02*
D03*
X84500Y-41500D02*
D03*
X-15000Y18000D02*
D03*
D70*
X-15916Y-52715D02*
D03*
Y-86731D02*
D03*
D71*
X541Y-52715D02*
D03*
Y-86731D02*
D03*
D72*
X-1546Y-81101D02*
D03*
Y-58345D02*
D03*
D73*
X121402Y-41500D02*
D03*
X46598D02*
D03*
D74*
X14263Y270D02*
D03*
X75562Y6409D02*
D03*
X45000Y-11000D02*
D03*
X37500Y-69000D02*
D03*
X165000Y8500D02*
D03*
X48500Y15819D02*
D03*
X16842Y-60658D02*
D03*
X41000Y-11000D02*
D03*
X31335Y-57220D02*
D03*
X33303Y-53283D02*
D03*
X31335Y-49346D02*
D03*
X33303Y-45409D02*
D03*
X31335Y-41472D02*
D03*
X33303Y-37535D02*
D03*
X31335Y-33598D02*
D03*
X33303Y-29661D02*
D03*
X31335Y-25724D02*
D03*
X35272Y-57220D02*
D03*
X37240Y-53283D02*
D03*
X35272Y-49346D02*
D03*
Y-33598D02*
D03*
X37240Y-29661D02*
D03*
X35272Y-25724D02*
D03*
X39209Y-57220D02*
D03*
Y-25724D02*
D03*
X43146Y-57220D02*
D03*
Y-25724D02*
D03*
X47083Y-57220D02*
D03*
Y-25724D02*
D03*
X51020Y-57220D02*
D03*
Y-25724D02*
D03*
X54957Y-57220D02*
D03*
X56925Y-53283D02*
D03*
Y-29661D02*
D03*
X54957Y-25724D02*
D03*
X58894Y-57220D02*
D03*
X60862Y-53283D02*
D03*
X58894Y-49346D02*
D03*
X60862Y-45409D02*
D03*
Y-37535D02*
D03*
X58894Y-33598D02*
D03*
X60862Y-29661D02*
D03*
X58894Y-25724D02*
D03*
X62831Y-57220D02*
D03*
X64799Y-53283D02*
D03*
X62831Y-49346D02*
D03*
X64799Y-45409D02*
D03*
X62831Y-41472D02*
D03*
X64799Y-37535D02*
D03*
X62831Y-33598D02*
D03*
X64799Y-29661D02*
D03*
X62831Y-25724D02*
D03*
X104169Y-53283D02*
D03*
Y-45409D02*
D03*
Y-37535D02*
D03*
Y-29661D02*
D03*
X106138Y-57220D02*
D03*
X108107Y-53283D02*
D03*
X106138Y-49346D02*
D03*
X108107Y-45409D02*
D03*
X106138Y-41472D02*
D03*
X108107Y-37535D02*
D03*
X106138Y-33598D02*
D03*
X108107Y-29661D02*
D03*
X106138Y-25724D02*
D03*
X110075Y-57220D02*
D03*
X112043Y-53283D02*
D03*
X110075Y-49346D02*
D03*
Y-33598D02*
D03*
X112043Y-29661D02*
D03*
X110075Y-25724D02*
D03*
X114012Y-57220D02*
D03*
Y-25724D02*
D03*
X117949Y-57220D02*
D03*
Y-25724D02*
D03*
X121886Y-57220D02*
D03*
Y-25724D02*
D03*
X125823Y-57220D02*
D03*
Y-25724D02*
D03*
X129760Y-57220D02*
D03*
X131729Y-53283D02*
D03*
Y-29661D02*
D03*
X129760Y-25724D02*
D03*
X133697Y-57220D02*
D03*
X135666Y-53283D02*
D03*
X133697Y-49346D02*
D03*
X135666Y-45409D02*
D03*
Y-37535D02*
D03*
X133697Y-33598D02*
D03*
X135666Y-29661D02*
D03*
X133697Y-25724D02*
D03*
X137634Y-57220D02*
D03*
X139603Y-53283D02*
D03*
X137634Y-49346D02*
D03*
X139603Y-45409D02*
D03*
X137634Y-41472D02*
D03*
X139603Y-37535D02*
D03*
X137634Y-33598D02*
D03*
X139603Y-29661D02*
D03*
X137634Y-25724D02*
D03*
X58000Y-1000D02*
D03*
X103500Y-82500D02*
D03*
X72239Y19819D02*
D03*
X171500Y-40500D02*
D03*
X113500Y-77000D02*
D03*
X40500Y10000D02*
D03*
X155500Y-77500D02*
D03*
X0Y0D02*
D03*
X5500Y-2000D02*
D03*
Y2500D02*
D03*
X160000Y-16500D02*
D03*
X160500Y-58500D02*
D03*
X150500Y-40000D02*
D03*
Y-36500D02*
D03*
X10000Y-35000D02*
D03*
X5500D02*
D03*
X27751Y-86091D02*
D03*
X105791Y-6626D02*
D03*
X168591Y-1015D02*
D03*
X137000Y5000D02*
D03*
X0Y-7500D02*
D03*
X17330Y-48830D02*
D03*
X156500Y-49500D02*
D03*
X159880Y-19880D02*
D03*
M02*
