M48
;Layer_Color=9474304
;FILE_FORMAT=2:4
INCH,TZ
;TYPE=PLATED
T01F00S00C0.0118
T03F00S00C0.2109
;TYPE=NON_PLATED
T04F00S00C0.0295
T05F00S00C0.0315
T06F00S00C0.0945
%
T01
X15550Y-7750
X16050Y-5850
X15650Y-4950
X15050Y-4000
Y-3650
X13960Y-3754
Y-4541
Y-5328
Y-2966
X15988Y-1988
X16000Y-1650
X16859Y-101
X16500Y850
X17150Y-4050
X13763Y-4147
X13567Y-4541
X13370Y-4935
X13763
X13567Y-5328
X13173
X12976Y-5722
X12582
X12189
X11795
X11401
X11007
X10614
X10811Y-5328
X10417
X10614Y-4935
X11007
X11204Y-5328
X10811Y-4541
X10417
X10614Y-4147
X10811Y-3754
X10417
X10614Y-3360
X11007
X11204Y-2966
X10811
X10417
X10614Y-2572
X11007
X11401
X11795
X12189
X12582
X12976
X13370
X13763
X13567Y-2966
X13173
X13370Y-3360
X13763
X13567Y-3754
X13370Y-5722
X13763
X11350Y-7700
X10350Y-8250
X6283Y-5722
X5889
X5496
X5102
X4708
X4315
X3921
X3527
X3133
X3330Y-5328
X3724
X3527Y-4935
X3133
X3330Y-4541
X3133Y-4147
X3330Y-3754
X3133Y-3360
X3527
X3724Y-2966
X3330
X3133Y-2572
X3527
X3921
X4315
X4708
X5102
X5496
X5889
X6283
X6480Y-2966
X6086
X5693
X5889Y-3360
X6283
X6480Y-3754
X6086
X6283Y-4147
X6480Y-4541
X6086
X5889Y-4935
X6283
X6480Y-5328
X6086
X5693
X3750Y-6900
X2775Y-8609
X1684Y-6066
X1733Y-4883
X1000Y-3500
X550
Y-200
Y250
X0Y0
Y-750
X1426Y27
X4050Y1000
X4100Y-1100
X4500
X5800Y-100
X7556Y641
X10579Y-663
X13700Y500
X7224Y1982
X4850Y1582
T03
X4660Y-4150
X12140
T04
X-155Y-8110
Y-5835
T05
X7931Y-8510
X8837
T06
X17250Y-8350
X8450Y-4150
X-1500Y-4250
Y1800
X17250
M30
